<svg width="646" height="198" viewBox="0 0 646 198" fill="none" xmlns="http://www.w3.org/2000/svg">
<path d="M79.7158 48.6299L135.765 30.7105C250.32 -5.91415 373.197 -7.53462 488.679 26.0564L566.284 48.6299V158.756L492.318 136.76C374.58 101.748 248.97 103.435 132.214 141.597L116.884 146.608L79.7158 158.756V70.8954V48.6299Z" fill="#EEBD8A"/>
<path d="M644 194.775V84.1115C619.441 70.6048 592.461 66.1769 566.284 70.8954V158.756L529.116 147.703V194.775L533.911 192.696C569.626 177.21 608.691 177.948 644 194.775Z" fill="#C79562"/>
<path d="M2 84.1115V194.775C37.3086 177.948 76.3741 177.21 112.089 192.696L116.884 194.775L79.7158 158.756V70.8954C53.5385 66.1769 26.5591 70.6048 2 84.1115Z" fill="#C79562"/>
<path d="M79.7158 158.756L116.884 194.775V146.608L79.7158 158.756Z" fill="#C79562"/>
<path d="M566.284 158.756V48.6299L488.679 26.0564C373.197 -7.53462 250.32 -5.91415 135.765 30.7105L79.7158 48.6299V70.8954M566.284 158.756L492.318 136.76C374.58 101.748 248.97 103.435 132.214 141.597L116.884 146.608M566.284 158.756L529.116 194.775M566.284 158.756L529.116 147.703V194.775M566.284 158.756V70.8954C592.461 66.1769 619.441 70.6048 644 84.1115V194.775C608.691 177.948 569.626 177.21 533.911 192.696L529.116 194.775M79.7158 158.756L116.884 194.775M79.7158 158.756L116.884 146.608M79.7158 158.756V70.8954M116.884 194.775L112.089 192.696C76.3741 177.21 37.3086 177.948 2 194.775V84.1115C26.5591 70.6048 53.5385 66.1769 79.7158 70.8954M116.884 194.775V146.608" stroke="#1B2236" stroke-width="4"/>
<mask id="path-3-outside-1_2_958" maskUnits="userSpaceOnUse" x="100.251" y="27.8852" width="456" height="93" fill="black">
<rect fill="white" x="100.251" y="27.8852" width="456" height="93"/>
<path d="M144.963 100.892C144.091 101.354 143.273 101.858 142.51 102.405C141.748 102.952 141.053 103.511 140.428 104.083C139.802 104.654 139.259 105.207 138.798 105.741C138.337 106.276 137.972 106.76 137.704 107.195C136.827 105.97 135.471 104.161 133.635 101.768C131.8 99.3742 129.466 96.3784 126.634 92.7803C125.386 93.1291 124.147 93.5003 122.916 93.8937C121.708 94.2787 120.479 94.7099 119.229 95.1874C118.872 95.3238 118.553 95.4586 118.271 95.5918C117.981 95.7026 117.724 95.8007 117.501 95.8859C113.64 97.361 110.57 98.7641 108.291 100.095L107.982 100.29C108.079 104.294 108.201 107.457 108.346 109.78C108.492 112.103 108.697 113.61 108.962 114.302L109.128 114.737C106.22 116.564 104.319 118.416 103.424 120.292C103.779 116.601 104.065 112.464 104.283 107.88C104.492 103.273 104.63 98.1436 104.696 92.4919C104.789 82.2263 104.1 73.8963 102.629 67.5019L102.251 66.1117C104.863 64.7813 107.304 62.7362 109.574 59.9762C112.799 66.3402 118.295 73.9331 126.065 82.755C134.44 92.2917 140.739 98.3375 144.963 100.892ZM124.317 89.8291L121.126 85.7928C117.758 81.5297 115.018 78.2414 112.907 75.9279C110.809 73.5836 109.338 72.1764 108.493 71.7062C107.976 73.8989 107.762 80.5022 107.852 91.5162L107.888 96.0291C109.069 95.7058 110.297 95.3389 111.573 94.9284C112.87 94.5094 114.222 94.0312 115.628 93.4941L116.331 93.2255C119.656 91.9551 122.319 90.8229 124.317 89.8291Z"/>
<path d="M152.919 102.477C152.408 98.8776 151.869 95.6319 151.304 92.7402C150.755 89.8193 150.166 87.2063 149.538 84.9014C149.028 83.0344 148.531 81.3005 148.045 79.6996C147.575 78.0694 147.097 76.5408 146.609 75.1139C146.114 73.6639 145.601 72.2809 145.069 70.965C144.559 69.6428 144.013 68.3185 143.428 66.9921L143.104 66.4861C144.466 65.9413 145.773 65.2384 147.024 64.3772C148.291 63.4867 149.541 62.4401 150.774 61.2374L150.978 61.0331C150.93 61.7644 150.889 62.568 150.855 63.4439C150.815 64.2967 150.788 65.1956 150.773 66.1406L157.063 59.3738C158.054 59.3759 159.317 59.5143 160.853 59.7888C162.406 60.034 164.027 60.4835 165.716 61.1373C167.398 61.7681 169.042 62.6199 170.647 63.6928C172.269 64.7363 173.63 66.0491 174.73 67.6311L169.169 71.8961C167.753 70.4251 166.274 69.2684 164.732 68.426C163.183 67.5606 161.663 66.9351 160.171 66.5495C158.673 66.1408 157.257 65.9449 155.925 65.9616C154.586 65.9553 153.421 66.0872 152.43 66.3575C151.946 66.4895 151.471 66.6561 151.006 66.8572L150.971 66.8666C151.112 67.7446 151.413 69.1234 151.876 71.0029C152.356 72.8531 152.992 75.2304 153.784 78.1346L154.114 79.3446C155.88 85.8215 157.892 91.2904 160.148 95.7515L160.764 96.9208C159.897 97.2812 159.056 97.696 158.243 98.1654C157.43 98.6347 156.676 99.1376 155.98 99.674C155.301 100.181 154.695 100.681 154.161 101.173C153.626 101.666 153.212 102.1 152.919 102.477Z"/>
<path d="M177.558 52.365C177.589 50.3543 177.377 48.298 176.923 46.1962C176.787 45.5657 176.628 44.9402 176.445 44.3197C176.286 43.6942 176.091 43.0763 175.862 42.4659L175.493 41.7757C178.44 40.8219 181.263 39.125 183.963 36.6848L184.178 36.4918C184.091 37.9035 184.315 39.8472 184.85 42.3226C184.991 42.9765 185.17 43.6954 185.388 44.4793C185.625 45.2348 185.902 46.0671 186.22 46.976C185.288 47.2994 184.371 47.6929 183.469 48.1564C182.585 48.5915 181.758 49.0633 180.988 49.5717C180.236 50.0517 179.56 50.5399 178.958 51.0364C178.38 51.5278 177.913 51.9707 177.558 52.365ZM187.105 93.7117C186.788 90.0896 186.424 86.8196 186.014 83.9018C185.623 80.9556 185.175 78.3149 184.671 75.9796C184.263 74.088 183.859 72.3298 183.46 70.7052C183.078 69.0522 182.682 67.5001 182.271 66.049C181.855 64.5746 181.417 63.1661 180.956 61.8235C180.519 60.4759 180.044 59.1242 179.531 57.7684L179.235 57.2457C180.624 56.7748 181.966 56.1429 183.262 55.3501C184.575 54.5289 185.88 53.5508 187.175 52.4159L187.389 52.2229C187.094 56.515 187.722 62.2574 189.274 69.4502L189.539 70.6763C190.955 77.2385 192.67 82.8075 194.685 87.3832L195.237 88.5838C194.258 88.9173 193.341 89.3107 192.485 89.7642C191.648 90.1892 190.877 90.6367 190.172 91.1066C189.49 91.5715 188.881 92.0329 188.345 92.4909C187.831 92.9439 187.418 93.3508 187.105 93.7117Z"/>
<path d="M208.05 89.4386C207.941 85.7946 207.657 81.9874 207.199 78.0168C206.765 74.042 206.159 69.8548 205.383 65.4552C205.25 64.7023 205.128 64.0083 205.016 63.373C204.904 62.7378 204.79 62.1634 204.675 61.65L203.044 53.6409C201.358 53.9869 199.763 54.3654 198.259 54.7763C196.778 55.1832 195.354 55.6405 193.988 56.1484C194.227 55.5727 194.41 54.8247 194.539 53.9043C194.64 52.9646 194.657 51.8941 194.591 50.6929L195.186 50.7697C195.906 50.8611 196.851 50.8521 198.02 50.7428C199.185 50.61 200.598 50.4335 202.257 50.2136C201.753 48.0463 201.286 46.1516 200.854 44.5296C200.422 42.9076 200.011 41.5367 199.619 40.4171L199.195 39.2546C200.602 38.8367 201.967 38.2561 203.291 37.513C204.635 36.7422 206.05 35.7527 207.535 34.5445C207.615 38.8486 208.001 43.7174 208.693 49.1509C210.472 48.7883 212.114 48.4015 213.619 47.9906C215.143 47.5519 216.552 47.0848 217.848 46.5894C217.353 48.3263 217.176 50.1406 217.316 52.0325L216.726 51.991C215.893 51.9439 214.847 51.9951 213.588 52.1445C212.324 52.2704 210.849 52.4337 209.162 52.6343C209.325 53.6972 209.488 54.7601 209.651 55.823C209.838 56.8817 210.031 57.9757 210.231 59.105L210.448 60.3402C211.472 66.0062 212.419 70.7518 213.288 74.5771C214.157 78.4024 215.016 81.344 215.864 83.402L216.37 84.6227C215.544 84.8898 214.707 85.2316 213.859 85.6481C213.006 86.0411 212.197 86.475 211.432 86.9497C210.686 87.3967 210.012 87.843 209.412 88.2886C208.811 88.7342 208.357 89.1175 208.05 89.4386Z"/>
<path d="M229.348 85.7256C229.438 82.0811 229.363 78.264 229.122 74.2744C228.905 70.2818 228.529 66.0679 227.994 61.6324C227.215 55.3735 226.451 50.1355 225.701 45.9184C224.976 41.6985 224.277 38.4981 223.605 36.3171L223.245 35.1332C224.648 34.7955 226.043 34.2903 227.43 33.6177C228.814 32.9214 230.203 32.068 231.597 31.0575L231.829 30.8852C231.746 33.5904 231.757 36.4767 231.863 39.5442C231.968 42.6117 232.186 45.9182 232.518 49.4638L239.726 43.6852C240.41 43.7711 241.201 43.9404 242.097 44.1932C243.018 44.4431 243.985 44.7836 245 45.2147C246.012 45.6221 247.047 46.1229 248.105 46.7172C249.187 47.3086 250.208 47.9915 251.168 48.7661C252.148 49.5142 253.057 50.3671 253.895 51.3249C254.729 52.2589 255.432 53.2932 256.002 54.4276C257.201 56.5931 258 59.0235 258.397 61.7188C258.934 65.1675 259.466 68.1835 259.994 70.7668C260.519 73.3264 261.055 75.4756 261.602 77.2145L262.041 78.461C261.059 78.6998 260.122 79.0054 259.228 79.3779C258.355 79.7238 257.546 80.0981 256.801 80.5009C256.079 80.9008 255.43 81.304 254.853 81.7105C254.276 82.1169 253.815 82.4853 253.47 82.8158C253.646 76.4898 253.383 70.4213 252.682 64.6101C252.511 63.596 252.354 62.6885 252.209 61.8878C252.088 61.0842 251.942 60.3679 251.769 59.739C251.618 59.0834 251.428 58.5047 251.199 58.003C250.991 57.4746 250.716 56.9904 250.374 56.5503C249.563 55.6134 248.658 54.7961 247.66 54.0984C246.685 53.3978 245.507 52.806 244.125 52.3229C242.74 51.8162 241.114 51.3988 239.245 51.0707C237.398 50.716 235.197 50.428 232.644 50.2066L232.608 50.2109C232.69 51.0914 232.774 51.9837 232.859 52.8879C232.965 53.7655 233.072 54.6549 233.181 55.5562L233.331 56.8015C234.044 62.5149 234.73 67.3051 235.389 71.1721C236.048 75.0391 236.745 78.0232 237.48 80.1244L237.919 81.3709C236.913 81.6125 235.964 81.9196 235.07 82.2921C234.198 82.638 233.388 83.0123 232.643 83.4151C231.921 83.815 231.272 84.2182 230.695 84.6246C230.142 85.0282 229.693 85.3952 229.348 85.7256Z"/>
<path d="M272.631 80.5164C273.31 73.3239 273.574 67.3636 273.424 62.6357C273.349 60.2717 273.296 58.9826 273.265 58.7684C273.04 53.2062 272.499 48.2158 271.641 43.7971L271.443 43.2298C274.322 42.8034 277.215 41.6954 280.122 39.9058L280.368 39.7545C279.935 41.1786 279.474 42.8187 278.983 44.6748L286.672 39.5538C288.045 39.8686 289.75 40.5075 291.789 41.4704C293.706 42.3893 295.539 43.6337 297.286 45.2035L310.957 38.7804C312.329 39.0953 314.035 39.7341 316.073 40.697C317.967 41.6168 319.799 42.8611 321.57 44.4301C323.736 46.369 325.286 48.5307 326.223 50.915C327.227 53.1778 327.808 55.6691 327.967 58.3889C328.403 65.3308 329.012 70.5701 329.794 74.1067L330.121 75.387C328.528 75.629 327.082 76.0097 325.784 76.5291C323.73 77.3594 322.203 78.1729 321.2 78.9697C321.932 72.6839 322.205 66.6158 322.019 60.7655C321.971 60.0021 321.937 59.322 321.918 58.725C321.831 55.9789 321.335 53.9152 320.43 52.5337C318.904 50.4071 316.772 48.7421 314.032 47.5385C309.669 45.6218 305.815 44.7167 302.472 44.8232C300.801 44.8764 299.257 45.1766 297.84 45.7236C299.715 47.5523 301.081 49.5405 301.938 51.6884C302.942 53.9511 303.524 56.4424 303.682 59.1623C304.118 66.1042 304.727 71.3434 305.509 74.8801L305.837 76.1604C304.243 76.4024 302.797 76.7831 301.499 77.3024C299.446 78.1327 297.918 78.9463 296.916 79.7431C297.648 73.4572 297.92 67.3891 297.734 61.5388C297.686 60.7755 297.652 60.0953 297.633 59.4983C297.546 56.7523 297.05 54.6885 296.145 53.307C294.646 51.2513 292.513 49.5863 289.748 48.3119C287.322 47.194 283.753 46.232 279.043 45.4259L279.007 45.427C278.895 47.1755 278.935 51.0465 279.126 57.0401L279.166 58.2937C279.379 65.0036 280.066 70.7902 281.224 75.6534L281.552 76.9337C279.934 77.1765 278.488 77.5571 277.214 78.0758C275.161 78.9061 273.633 79.7196 272.631 80.5164Z"/>
<path d="M348.056 44.5268L348.018 44.5608C347.26 45.8136 346.409 47.9349 345.466 50.9245C344.782 53.0663 344.391 55.0796 344.295 56.9645C344.257 57.7041 344.276 58.4826 344.354 59.3C344.556 61.4156 345.329 63.5963 346.673 65.8424C348.06 68.1863 350.035 70.0222 352.598 71.3501C354.998 72.5978 358.461 73.8643 362.988 75.1496L363.026 75.1156C363.665 73.8567 364.466 71.5295 365.43 68.1343C366.014 66.083 366.349 64.2104 366.436 62.5164C366.483 61.6097 366.465 60.8074 366.381 60.1093C366.131 57.9913 365.358 55.8105 364.062 53.567C363.007 51.7425 361.032 49.9185 358.135 48.0951C355.864 46.6626 352.505 45.4732 348.056 44.5268ZM354.971 80.3353C353.558 79.9038 351.899 79.1248 349.995 77.9983C348.115 76.873 346.393 75.4806 344.828 73.8213C342.832 71.6853 341.478 69.4029 340.766 66.974C339.865 64.4877 339.481 61.956 339.613 59.3792C339.617 59.3077 339.619 59.2599 339.621 59.2361C339.752 56.6831 340.472 54.0767 341.781 51.4169C342.823 49.2935 344.099 47.5051 345.609 46.0517C346.314 45.3703 347.063 44.7628 347.856 44.2295L355.699 39.6448C356.852 40.0151 358.521 40.8305 360.704 42.091C362.33 43.0358 364.042 44.4156 365.838 46.2304C367.856 48.3914 369.23 50.7467 369.961 53.2961C370.778 56.0174 371.139 58.5239 371.045 60.8156L371.038 60.9588C370.869 64.2514 370.209 66.837 369.06 68.7156C367.284 71.6146 365.823 73.525 364.675 74.4469C364.051 74.9411 363.624 75.3497 363.392 75.6727L354.971 80.3353Z"/>
<path d="M389.212 66.7494C390.029 70.1134 391.846 72.9307 394.664 75.2013C396.487 76.7087 399.809 78.1473 404.63 79.5171L404.67 79.4856C404.959 79.0618 405.336 78.3956 405.8 77.4869C406.265 76.5783 406.719 75.5601 407.16 74.4324C407.629 73.2837 408.042 72.0926 408.399 70.8591C408.783 69.6045 409.038 68.4313 409.163 67.3395C409.302 66.129 409.268 64.8506 409.061 63.5043C408.858 62.1344 408.458 60.7901 407.864 59.4716C407.296 58.132 406.504 56.8629 405.487 55.6643C404.496 54.4447 403.26 53.3773 401.777 52.462C400.677 51.7829 399.314 51.0857 397.689 50.3705C396.087 49.658 394.211 48.9261 392.061 48.1748C391.005 52.9835 390.091 58.4457 389.318 64.5613L389.212 66.7494ZM378.322 95.3686C379.255 91.8443 380.067 88.1139 380.759 84.1772C381.474 80.2433 382.086 76.057 382.594 71.6184C383.288 65.3495 383.76 60.0771 384.009 55.8012C384.282 51.5281 384.345 48.2528 384.197 45.9755L384.122 44.7405C385.565 44.7374 387.039 44.5696 388.544 44.237C390.052 43.8807 391.689 43.3348 393.457 42.5995C393.256 43.2979 393.067 44.0097 392.888 44.7346C392.708 45.4595 392.528 46.1963 392.346 46.945L399.972 43.3458C400.662 43.6172 401.447 44.0077 402.327 44.5173C403.233 45.0058 404.129 45.5774 405.016 46.2321C405.929 46.8657 406.788 47.5533 407.593 48.2947C408.425 49.0152 409.111 49.743 409.652 50.4783C410.463 51.5813 411.176 52.7089 411.789 53.8613C412.405 54.99 412.908 56.1657 413.297 57.3886C413.686 58.6114 413.937 59.8787 414.052 61.1903C414.166 62.5019 414.139 63.8936 413.97 65.3652C413.625 66.9127 413.28 68.2439 412.936 69.3587C412.618 70.4525 412.214 71.4643 411.722 72.394C411.255 73.3263 410.657 74.2438 409.928 75.1462C409.226 76.0277 408.306 77.0284 407.168 78.1485C406.898 78.4061 406.567 78.6689 406.176 78.9366C405.784 79.2044 405.329 79.501 404.811 79.8264L396.717 83.7327C395.623 83.415 394.301 82.7826 392.75 81.8355C391.225 80.8673 389.668 79.5587 388.077 77.9096C387.911 80.1991 387.791 82.5059 387.718 84.83C387.644 87.1542 387.599 89.5417 387.583 91.9926L387.67 93.1208L387.657 93.2276C386.191 93.2279 384.705 93.3944 383.2 93.727C381.716 94.086 380.09 94.6332 378.322 95.3686Z"/>
<path d="M435.813 89.6814C434.484 89.1056 432.935 88.1269 431.167 86.7452C429.402 85.3399 427.866 83.7447 426.557 81.9593C424.842 79.5923 423.782 77.1595 423.376 74.661C422.923 72.5666 422.856 70.0069 423.175 66.9819L423.2 66.8408C423.647 64.3238 424.685 61.8269 426.313 59.35C427.547 57.4581 429.035 55.8418 430.778 54.5012C431.506 53.9512 432.325 53.4414 433.233 52.9718L441.508 49.4184C442.679 50.0632 444.632 51.4292 447.368 53.5164C449.355 55.034 451.171 57.1036 452.816 59.7252C453.904 62.3448 454.271 64.6544 453.916 66.6538C453.907 66.7008 453.897 66.7596 453.884 66.8302C453.022 69.6373 451.295 71.7087 448.704 73.0442C444.297 75.3188 439.195 75.9659 433.4 74.9853C441.135 73.7868 445.963 71.6718 447.885 68.6402C448.288 68.0082 448.548 67.3628 448.665 66.7042C448.67 66.6807 448.674 66.6572 448.678 66.6336C448.682 66.6101 448.686 66.5866 448.69 66.5631C448.866 65.5751 448.626 64.5376 447.969 63.4504C446.947 61.6917 445.331 59.9974 443.121 58.3675C439.345 55.5858 436.186 53.8358 433.644 53.1176C432.491 54.4173 431.287 56.4843 430.031 59.3187C429.058 61.5237 428.42 63.473 428.119 65.1666C427.977 65.9664 427.9 66.7414 427.889 67.4914C427.846 69.6435 428.343 71.9033 429.378 74.271C430.452 76.6941 432.184 78.7608 434.574 80.4712C436.64 81.9543 439.919 83.6407 444.412 85.5305L444.454 85.5015C444.935 84.9802 445.305 83.9904 445.564 82.532C445.726 81.6146 445.787 80.3878 445.744 78.8515L450.403 81.7172C449.513 83.0393 448.249 84.1493 446.609 85.0471C445.373 85.7253 444.752 86.0761 444.748 86.0997L435.813 89.6814Z"/>
<path d="M486.916 75.5263C486.513 72.1106 485.056 69.0912 482.544 66.468C480.955 64.8055 477.835 62.9693 473.184 60.9593L473.141 60.9857C472.193 62.0592 470.965 63.9865 469.456 66.7679C468.393 68.7229 467.637 70.6293 467.188 72.487C467.008 73.2301 466.884 73.9988 466.814 74.7932C466.639 76.84 466.995 79.1261 467.884 81.6516C468.755 84.1482 470.356 86.3176 472.688 88.1599C474.728 89.7841 477.755 91.5979 481.769 93.6012C483.437 88.9412 485.016 83.6329 486.506 77.6763C486.657 76.9509 486.793 76.2342 486.916 75.5263ZM501.242 48.4636C498.558 55.1884 496.171 62.8699 494.082 71.5081C493.874 72.3673 493.582 73.6241 493.207 75.2784C490.959 85.181 489.669 92.3414 489.338 96.7594L489.26 97.9942C486.372 97.6396 483.288 97.9384 480.01 98.8905L479.733 98.9709C480.279 97.6282 480.827 96.2246 481.378 94.7602L473.358 97.4289C472.073 96.7492 470.587 95.6769 468.901 94.2122C466.993 92.5463 465.558 90.8595 464.595 89.1517C463.22 86.7053 462.312 84.2118 461.869 81.6714C461.376 79.34 461.467 76.781 462.141 73.9945C462.163 73.9016 462.175 73.8551 462.175 73.8551C462.942 71.1896 464.132 68.7613 465.743 66.5702C466.879 65.026 468.464 63.5044 470.498 62.0055C471.126 61.5429 471.974 61.0845 473.043 60.6301L481.556 57.749C482.841 58.3302 484.344 59.382 486.065 60.9045C487.179 61.8868 488.296 63.1154 489.414 64.5903C490.295 60.1334 491.036 55.495 491.637 50.6751L491.658 49.9796L491.689 49.5448L491.714 49.4403C494.579 49.7893 497.663 49.4905 500.964 48.5439L501.242 48.4636Z"/>
<path d="M511.348 63.5477C512.335 61.7956 513.131 59.888 513.736 57.8247C513.918 57.2058 514.077 56.5801 514.212 55.9477C514.371 55.322 514.495 54.6862 514.585 54.0403L514.591 53.2577C517.635 53.8272 520.926 53.6846 524.463 52.8301L524.745 52.7631C523.994 53.9622 523.263 55.7768 522.55 58.2068C522.362 58.8487 522.176 59.5661 521.993 60.359C521.84 61.1357 521.686 61.9994 521.532 62.95C520.558 62.7889 519.565 62.6966 518.551 62.673C517.567 62.6332 516.615 62.6528 515.695 62.7316C514.806 62.7943 513.978 62.9 513.212 63.0489C512.469 63.2044 511.848 63.3707 511.348 63.5477ZM499.989 104.434C501.44 101.1 502.682 98.0532 503.716 95.294C504.779 92.5185 505.647 89.9846 506.319 87.6921C506.864 85.8352 507.349 84.0977 507.774 82.4795C508.228 80.8451 508.621 79.2923 508.953 77.8211C509.292 76.3271 509.58 74.8802 509.816 73.4806C510.075 72.0877 510.303 70.6732 510.5 69.2372L510.49 68.6365C511.935 68.8863 513.417 68.9722 514.933 68.8943C516.48 68.8002 518.093 68.5638 519.772 68.1851L520.053 68.1182C517.744 71.7479 515.553 77.0932 513.482 84.154L513.129 85.3576C511.239 91.7994 510.086 97.5114 509.67 102.493L509.582 103.812C508.563 103.638 507.569 103.545 506.601 103.535C505.663 103.509 504.772 103.534 503.928 103.61C503.107 103.693 502.351 103.807 501.661 103.953C500.994 104.106 500.436 104.266 499.989 104.434Z"/>
<path d="M528.631 81.5053C529.685 80.3522 531.107 79.452 532.897 78.8048L534.932 78.0655L544.315 75.914C545.486 76.6962 546.853 77.8997 548.416 79.5244C549.904 81.0728 551.174 82.8872 552.227 84.9677C553.546 87.5949 554.227 90.1666 554.27 92.683C554.404 95.1549 554.062 97.6901 553.243 100.289C551.192 106.758 549.899 111.872 549.363 115.629L549.214 116.942C547.616 116.594 546.129 116.436 544.754 116.468C542.54 116.514 540.822 116.731 539.602 117.12C542.561 111.316 545.078 105.399 547.155 99.3673C547.256 99.0736 547.361 98.7687 547.47 98.4524C548.357 95.8773 548.627 93.772 548.28 92.1366C547.58 89.5458 546.179 87.2314 544.076 85.1934C542.183 83.3539 539.189 81.1863 535.096 78.6904C534.54 79.1307 534.021 80.0511 533.539 81.4517C533.236 82.3327 532.986 83.5353 532.79 85.0595L528.631 81.5053ZM532.453 114.658C531.321 113.763 529.603 112.11 527.3 109.7C525.572 107.892 524.099 105.566 522.881 102.721C522.213 99.9639 522.209 97.6255 522.87 95.7054C522.886 95.6602 522.905 95.6038 522.929 95.536C524.209 92.9194 526.236 91.1412 529.01 90.2014C533.695 88.6308 538.835 88.7834 544.43 90.6594C536.669 90.8171 531.71 92.268 529.552 95.012C529.101 95.5893 528.77 96.1829 528.56 96.7928C528.202 97.8319 528.245 98.8825 528.688 99.9446C529.954 102.579 531.14 104.453 532.247 105.567C535.644 108.985 538.621 111.273 541.178 112.432L532.453 114.658Z"/>
</mask>
<path d="M144.963 100.892C144.091 101.354 143.273 101.858 142.51 102.405C141.748 102.952 141.053 103.511 140.428 104.083C139.802 104.654 139.259 105.207 138.798 105.741C138.337 106.276 137.972 106.76 137.704 107.195C136.827 105.97 135.471 104.161 133.635 101.768C131.8 99.3742 129.466 96.3784 126.634 92.7803C125.386 93.1291 124.147 93.5003 122.916 93.8937C121.708 94.2787 120.479 94.7099 119.229 95.1874C118.872 95.3238 118.553 95.4586 118.271 95.5918C117.981 95.7026 117.724 95.8007 117.501 95.8859C113.64 97.361 110.57 98.7641 108.291 100.095L107.982 100.29C108.079 104.294 108.201 107.457 108.346 109.78C108.492 112.103 108.697 113.61 108.962 114.302L109.128 114.737C106.22 116.564 104.319 118.416 103.424 120.292C103.779 116.601 104.065 112.464 104.283 107.88C104.492 103.273 104.63 98.1436 104.696 92.4919C104.789 82.2263 104.1 73.8963 102.629 67.5019L102.251 66.1117C104.863 64.7813 107.304 62.7362 109.574 59.9762C112.799 66.3402 118.295 73.9331 126.065 82.755C134.44 92.2917 140.739 98.3375 144.963 100.892ZM124.317 89.8291L121.126 85.7928C117.758 81.5297 115.018 78.2414 112.907 75.9279C110.809 73.5836 109.338 72.1764 108.493 71.7062C107.976 73.8989 107.762 80.5022 107.852 91.5162L107.888 96.0291C109.069 95.7058 110.297 95.3389 111.573 94.9284C112.87 94.5094 114.222 94.0312 115.628 93.4941L116.331 93.2255C119.656 91.9551 122.319 90.8229 124.317 89.8291Z" fill="#1B2236"/>
<path d="M152.919 102.477C152.408 98.8776 151.869 95.6319 151.304 92.7402C150.755 89.8193 150.166 87.2063 149.538 84.9014C149.028 83.0344 148.531 81.3005 148.045 79.6996C147.575 78.0694 147.097 76.5408 146.609 75.1139C146.114 73.6639 145.601 72.2809 145.069 70.965C144.559 69.6428 144.013 68.3185 143.428 66.9921L143.104 66.4861C144.466 65.9413 145.773 65.2384 147.024 64.3772C148.291 63.4867 149.541 62.4401 150.774 61.2374L150.978 61.0331C150.93 61.7644 150.889 62.568 150.855 63.4439C150.815 64.2967 150.788 65.1956 150.773 66.1406L157.063 59.3738C158.054 59.3759 159.317 59.5143 160.853 59.7888C162.406 60.034 164.027 60.4835 165.716 61.1373C167.398 61.7681 169.042 62.6199 170.647 63.6928C172.269 64.7363 173.63 66.0491 174.73 67.6311L169.169 71.8961C167.753 70.4251 166.274 69.2684 164.732 68.426C163.183 67.5606 161.663 66.9351 160.171 66.5495C158.673 66.1408 157.257 65.9449 155.925 65.9616C154.586 65.9553 153.421 66.0872 152.43 66.3575C151.946 66.4895 151.471 66.6561 151.006 66.8572L150.971 66.8666C151.112 67.7446 151.413 69.1234 151.876 71.0029C152.356 72.8531 152.992 75.2304 153.784 78.1346L154.114 79.3446C155.88 85.8215 157.892 91.2904 160.148 95.7515L160.764 96.9208C159.897 97.2812 159.056 97.696 158.243 98.1654C157.43 98.6347 156.676 99.1376 155.98 99.674C155.301 100.181 154.695 100.681 154.161 101.173C153.626 101.666 153.212 102.1 152.919 102.477Z" fill="#1B2236"/>
<path d="M177.558 52.365C177.589 50.3543 177.377 48.298 176.923 46.1962C176.787 45.5657 176.628 44.9402 176.445 44.3197C176.286 43.6942 176.091 43.0763 175.862 42.4659L175.493 41.7757C178.44 40.8219 181.263 39.125 183.963 36.6848L184.178 36.4918C184.091 37.9035 184.315 39.8472 184.85 42.3226C184.991 42.9765 185.17 43.6954 185.388 44.4793C185.625 45.2348 185.902 46.0671 186.22 46.976C185.288 47.2994 184.371 47.6929 183.469 48.1564C182.585 48.5915 181.758 49.0633 180.988 49.5717C180.236 50.0517 179.56 50.5399 178.958 51.0364C178.38 51.5278 177.913 51.9707 177.558 52.365ZM187.105 93.7117C186.788 90.0896 186.424 86.8196 186.014 83.9018C185.623 80.9556 185.175 78.3149 184.671 75.9796C184.263 74.088 183.859 72.3298 183.46 70.7052C183.078 69.0522 182.682 67.5001 182.271 66.049C181.855 64.5746 181.417 63.1661 180.956 61.8235C180.519 60.4759 180.044 59.1242 179.531 57.7684L179.235 57.2457C180.624 56.7748 181.966 56.1429 183.262 55.3501C184.575 54.5289 185.88 53.5508 187.175 52.4159L187.389 52.2229C187.094 56.515 187.722 62.2574 189.274 69.4502L189.539 70.6763C190.955 77.2385 192.67 82.8075 194.685 87.3832L195.237 88.5838C194.258 88.9173 193.341 89.3107 192.485 89.7642C191.648 90.1892 190.877 90.6367 190.172 91.1066C189.49 91.5715 188.881 92.0329 188.345 92.4909C187.831 92.9439 187.418 93.3508 187.105 93.7117Z" fill="#1B2236"/>
<path d="M208.05 89.4386C207.941 85.7946 207.657 81.9874 207.199 78.0168C206.765 74.042 206.159 69.8548 205.383 65.4552C205.25 64.7023 205.128 64.0083 205.016 63.373C204.904 62.7378 204.79 62.1634 204.675 61.65L203.044 53.6409C201.358 53.9869 199.763 54.3654 198.259 54.7763C196.778 55.1832 195.354 55.6405 193.988 56.1484C194.227 55.5727 194.41 54.8247 194.539 53.9043C194.64 52.9646 194.657 51.8941 194.591 50.6929L195.186 50.7697C195.906 50.8611 196.851 50.8521 198.02 50.7428C199.185 50.61 200.598 50.4335 202.257 50.2136C201.753 48.0463 201.286 46.1516 200.854 44.5296C200.422 42.9076 200.011 41.5367 199.619 40.4171L199.195 39.2546C200.602 38.8367 201.967 38.2561 203.291 37.513C204.635 36.7422 206.05 35.7527 207.535 34.5445C207.615 38.8486 208.001 43.7174 208.693 49.1509C210.472 48.7883 212.114 48.4015 213.619 47.9906C215.143 47.5519 216.552 47.0848 217.848 46.5894C217.353 48.3263 217.176 50.1406 217.316 52.0325L216.726 51.991C215.893 51.9439 214.847 51.9951 213.588 52.1445C212.324 52.2704 210.849 52.4337 209.162 52.6343C209.325 53.6972 209.488 54.7601 209.651 55.823C209.838 56.8817 210.031 57.9757 210.231 59.105L210.448 60.3402C211.472 66.0062 212.419 70.7518 213.288 74.5771C214.157 78.4024 215.016 81.344 215.864 83.402L216.37 84.6227C215.544 84.8898 214.707 85.2316 213.859 85.6481C213.006 86.0411 212.197 86.475 211.432 86.9497C210.686 87.3967 210.012 87.843 209.412 88.2886C208.811 88.7342 208.357 89.1175 208.05 89.4386Z" fill="#1B2236"/>
<path d="M229.348 85.7256C229.438 82.0811 229.363 78.264 229.122 74.2744C228.905 70.2818 228.529 66.0679 227.994 61.6324C227.215 55.3735 226.451 50.1355 225.701 45.9184C224.976 41.6985 224.277 38.4981 223.605 36.3171L223.245 35.1332C224.648 34.7955 226.043 34.2903 227.43 33.6177C228.814 32.9214 230.203 32.068 231.597 31.0575L231.829 30.8852C231.746 33.5904 231.757 36.4767 231.863 39.5442C231.968 42.6117 232.186 45.9182 232.518 49.4638L239.726 43.6852C240.41 43.7711 241.201 43.9404 242.097 44.1932C243.018 44.4431 243.985 44.7836 245 45.2147C246.012 45.6221 247.047 46.1229 248.105 46.7172C249.187 47.3086 250.208 47.9915 251.168 48.7661C252.148 49.5142 253.057 50.3671 253.895 51.3249C254.729 52.2589 255.432 53.2932 256.002 54.4276C257.201 56.5931 258 59.0235 258.397 61.7188C258.934 65.1675 259.466 68.1835 259.994 70.7668C260.519 73.3264 261.055 75.4756 261.602 77.2145L262.041 78.461C261.059 78.6998 260.122 79.0054 259.228 79.3779C258.355 79.7238 257.546 80.0981 256.801 80.5009C256.079 80.9008 255.43 81.304 254.853 81.7105C254.276 82.1169 253.815 82.4853 253.47 82.8158C253.646 76.4898 253.383 70.4213 252.682 64.6101C252.511 63.596 252.354 62.6885 252.209 61.8878C252.088 61.0842 251.942 60.3679 251.769 59.739C251.618 59.0834 251.428 58.5047 251.199 58.003C250.991 57.4746 250.716 56.9904 250.374 56.5503C249.563 55.6134 248.658 54.7961 247.66 54.0984C246.685 53.3978 245.507 52.806 244.125 52.3229C242.74 51.8162 241.114 51.3988 239.245 51.0707C237.398 50.716 235.197 50.428 232.644 50.2066L232.608 50.2109C232.69 51.0914 232.774 51.9837 232.859 52.8879C232.965 53.7655 233.072 54.6549 233.181 55.5562L233.331 56.8015C234.044 62.5149 234.73 67.3051 235.389 71.1721C236.048 75.0391 236.745 78.0232 237.48 80.1244L237.919 81.3709C236.913 81.6125 235.964 81.9196 235.07 82.2921C234.198 82.638 233.388 83.0123 232.643 83.4151C231.921 83.815 231.272 84.2182 230.695 84.6246C230.142 85.0282 229.693 85.3952 229.348 85.7256Z" fill="#1B2236"/>
<path d="M272.631 80.5164C273.31 73.3239 273.574 67.3636 273.424 62.6357C273.349 60.2717 273.296 58.9826 273.265 58.7684C273.04 53.2062 272.499 48.2158 271.641 43.7971L271.443 43.2298C274.322 42.8034 277.215 41.6954 280.122 39.9058L280.368 39.7545C279.935 41.1786 279.474 42.8187 278.983 44.6748L286.672 39.5538C288.045 39.8686 289.75 40.5075 291.789 41.4704C293.706 42.3893 295.539 43.6337 297.286 45.2035L310.957 38.7804C312.329 39.0953 314.035 39.7341 316.073 40.697C317.967 41.6168 319.799 42.8611 321.57 44.4301C323.736 46.369 325.286 48.5307 326.223 50.915C327.227 53.1778 327.808 55.6691 327.967 58.3889C328.403 65.3308 329.012 70.5701 329.794 74.1067L330.121 75.387C328.528 75.629 327.082 76.0097 325.784 76.5291C323.73 77.3594 322.203 78.1729 321.2 78.9697C321.932 72.6839 322.205 66.6158 322.019 60.7655C321.971 60.0021 321.937 59.322 321.918 58.725C321.831 55.9789 321.335 53.9152 320.43 52.5337C318.904 50.4071 316.772 48.7421 314.032 47.5385C309.669 45.6218 305.815 44.7167 302.472 44.8232C300.801 44.8764 299.257 45.1766 297.84 45.7236C299.715 47.5523 301.081 49.5405 301.938 51.6884C302.942 53.9511 303.524 56.4424 303.682 59.1623C304.118 66.1042 304.727 71.3434 305.509 74.8801L305.837 76.1604C304.243 76.4024 302.797 76.7831 301.499 77.3024C299.446 78.1327 297.918 78.9463 296.916 79.7431C297.648 73.4572 297.92 67.3891 297.734 61.5388C297.686 60.7755 297.652 60.0953 297.633 59.4983C297.546 56.7523 297.05 54.6885 296.145 53.307C294.646 51.2513 292.513 49.5863 289.748 48.3119C287.322 47.194 283.753 46.232 279.043 45.4259L279.007 45.427C278.895 47.1755 278.935 51.0465 279.126 57.0401L279.166 58.2937C279.379 65.0036 280.066 70.7902 281.224 75.6534L281.552 76.9337C279.934 77.1765 278.488 77.5571 277.214 78.0758C275.161 78.9061 273.633 79.7196 272.631 80.5164Z" fill="#1B2236"/>
<path d="M348.056 44.5268L348.018 44.5608C347.26 45.8136 346.409 47.9349 345.466 50.9245C344.782 53.0663 344.391 55.0796 344.295 56.9645C344.257 57.7041 344.276 58.4826 344.354 59.3C344.556 61.4156 345.329 63.5963 346.673 65.8424C348.06 68.1863 350.035 70.0222 352.598 71.3501C354.998 72.5978 358.461 73.8643 362.988 75.1496L363.026 75.1156C363.665 73.8567 364.466 71.5295 365.43 68.1343C366.014 66.083 366.349 64.2104 366.436 62.5164C366.483 61.6097 366.465 60.8074 366.381 60.1093C366.131 57.9913 365.358 55.8105 364.062 53.567C363.007 51.7425 361.032 49.9185 358.135 48.0951C355.864 46.6626 352.505 45.4732 348.056 44.5268ZM354.971 80.3353C353.558 79.9038 351.899 79.1248 349.995 77.9983C348.115 76.873 346.393 75.4806 344.828 73.8213C342.832 71.6853 341.478 69.4029 340.766 66.974C339.865 64.4877 339.481 61.956 339.613 59.3792C339.617 59.3077 339.619 59.2599 339.621 59.2361C339.752 56.6831 340.472 54.0767 341.781 51.4169C342.823 49.2935 344.099 47.5051 345.609 46.0517C346.314 45.3703 347.063 44.7628 347.856 44.2295L355.699 39.6448C356.852 40.0151 358.521 40.8305 360.704 42.091C362.33 43.0358 364.042 44.4156 365.838 46.2304C367.856 48.3914 369.23 50.7467 369.961 53.2961C370.778 56.0174 371.139 58.5239 371.045 60.8156L371.038 60.9588C370.869 64.2514 370.209 66.837 369.06 68.7156C367.284 71.6146 365.823 73.525 364.675 74.4469C364.051 74.9411 363.624 75.3497 363.392 75.6727L354.971 80.3353Z" fill="#1B2236"/>
<path d="M389.212 66.7494C390.029 70.1134 391.846 72.9307 394.664 75.2013C396.487 76.7087 399.809 78.1473 404.63 79.5171L404.67 79.4856C404.959 79.0618 405.336 78.3956 405.8 77.4869C406.265 76.5783 406.719 75.5601 407.16 74.4324C407.629 73.2837 408.042 72.0926 408.399 70.8591C408.783 69.6045 409.038 68.4313 409.163 67.3395C409.302 66.129 409.268 64.8506 409.061 63.5043C408.858 62.1344 408.458 60.7901 407.864 59.4716C407.296 58.132 406.504 56.8629 405.487 55.6643C404.496 54.4447 403.26 53.3773 401.777 52.462C400.677 51.7829 399.314 51.0857 397.689 50.3705C396.087 49.658 394.211 48.9261 392.061 48.1748C391.005 52.9835 390.091 58.4457 389.318 64.5613L389.212 66.7494ZM378.322 95.3686C379.255 91.8443 380.067 88.1139 380.759 84.1772C381.474 80.2433 382.086 76.057 382.594 71.6184C383.288 65.3495 383.76 60.0771 384.009 55.8012C384.282 51.5281 384.345 48.2528 384.197 45.9755L384.122 44.7405C385.565 44.7374 387.039 44.5696 388.544 44.237C390.052 43.8807 391.689 43.3348 393.457 42.5995C393.256 43.2979 393.067 44.0097 392.888 44.7346C392.708 45.4595 392.528 46.1963 392.346 46.945L399.972 43.3458C400.662 43.6172 401.447 44.0077 402.327 44.5173C403.233 45.0058 404.129 45.5774 405.016 46.2321C405.929 46.8657 406.788 47.5533 407.593 48.2947C408.425 49.0152 409.111 49.743 409.652 50.4783C410.463 51.5813 411.176 52.7089 411.789 53.8613C412.405 54.99 412.908 56.1657 413.297 57.3886C413.686 58.6114 413.937 59.8787 414.052 61.1903C414.166 62.5019 414.139 63.8936 413.97 65.3652C413.625 66.9127 413.28 68.2439 412.936 69.3587C412.618 70.4525 412.214 71.4643 411.722 72.394C411.255 73.3263 410.657 74.2438 409.928 75.1462C409.226 76.0277 408.306 77.0284 407.168 78.1485C406.898 78.4061 406.567 78.6689 406.176 78.9366C405.784 79.2044 405.329 79.501 404.811 79.8264L396.717 83.7327C395.623 83.415 394.301 82.7826 392.75 81.8355C391.225 80.8673 389.668 79.5587 388.077 77.9096C387.911 80.1991 387.791 82.5059 387.718 84.83C387.644 87.1542 387.599 89.5417 387.583 91.9926L387.67 93.1208L387.657 93.2276C386.191 93.2279 384.705 93.3944 383.2 93.727C381.716 94.086 380.09 94.6332 378.322 95.3686Z" fill="#1B2236"/>
<path d="M435.813 89.6814C434.484 89.1056 432.935 88.1269 431.167 86.7452C429.402 85.3399 427.866 83.7447 426.557 81.9593C424.842 79.5923 423.782 77.1595 423.376 74.661C422.923 72.5666 422.856 70.0069 423.175 66.9819L423.2 66.8408C423.647 64.3238 424.685 61.8269 426.313 59.35C427.547 57.4581 429.035 55.8418 430.778 54.5012C431.506 53.9512 432.325 53.4414 433.233 52.9718L441.508 49.4184C442.679 50.0632 444.632 51.4292 447.368 53.5164C449.355 55.034 451.171 57.1036 452.816 59.7252C453.904 62.3448 454.271 64.6544 453.916 66.6538C453.907 66.7008 453.897 66.7596 453.884 66.8302C453.022 69.6373 451.295 71.7087 448.704 73.0442C444.297 75.3188 439.195 75.9659 433.4 74.9853C441.135 73.7868 445.963 71.6718 447.885 68.6402C448.288 68.0082 448.548 67.3628 448.665 66.7042C448.67 66.6807 448.674 66.6572 448.678 66.6336C448.682 66.6101 448.686 66.5866 448.69 66.5631C448.866 65.5751 448.626 64.5376 447.969 63.4504C446.947 61.6917 445.331 59.9974 443.121 58.3675C439.345 55.5858 436.186 53.8358 433.644 53.1176C432.491 54.4173 431.287 56.4843 430.031 59.3187C429.058 61.5237 428.42 63.473 428.119 65.1666C427.977 65.9664 427.9 66.7414 427.889 67.4914C427.846 69.6435 428.343 71.9033 429.378 74.271C430.452 76.6941 432.184 78.7608 434.574 80.4712C436.64 81.9543 439.919 83.6407 444.412 85.5305L444.454 85.5015C444.935 84.9802 445.305 83.9904 445.564 82.532C445.726 81.6146 445.787 80.3878 445.744 78.8515L450.403 81.7172C449.513 83.0393 448.249 84.1493 446.609 85.0471C445.373 85.7253 444.752 86.0761 444.748 86.0997L435.813 89.6814Z" fill="#1B2236"/>
<path d="M486.916 75.5263C486.513 72.1106 485.056 69.0912 482.544 66.468C480.955 64.8055 477.835 62.9693 473.184 60.9593L473.141 60.9857C472.193 62.0592 470.965 63.9865 469.456 66.7679C468.393 68.7229 467.637 70.6293 467.188 72.487C467.008 73.2301 466.884 73.9988 466.814 74.7932C466.639 76.84 466.995 79.1261 467.884 81.6516C468.755 84.1482 470.356 86.3176 472.688 88.1599C474.728 89.7841 477.755 91.5979 481.769 93.6012C483.437 88.9412 485.016 83.6329 486.506 77.6763C486.657 76.9509 486.793 76.2342 486.916 75.5263ZM501.242 48.4636C498.558 55.1884 496.171 62.8699 494.082 71.5081C493.874 72.3673 493.582 73.6241 493.207 75.2784C490.959 85.181 489.669 92.3414 489.338 96.7594L489.26 97.9942C486.372 97.6396 483.288 97.9384 480.01 98.8905L479.733 98.9709C480.279 97.6282 480.827 96.2246 481.378 94.7602L473.358 97.4289C472.073 96.7492 470.587 95.6769 468.901 94.2122C466.993 92.5463 465.558 90.8595 464.595 89.1517C463.22 86.7053 462.312 84.2118 461.869 81.6714C461.376 79.34 461.467 76.781 462.141 73.9945C462.163 73.9016 462.175 73.8551 462.175 73.8551C462.942 71.1896 464.132 68.7613 465.743 66.5702C466.879 65.026 468.464 63.5044 470.498 62.0055C471.126 61.5429 471.974 61.0845 473.043 60.6301L481.556 57.749C482.841 58.3302 484.344 59.382 486.065 60.9045C487.179 61.8868 488.296 63.1154 489.414 64.5903C490.295 60.1334 491.036 55.495 491.637 50.6751L491.658 49.9796L491.689 49.5448L491.714 49.4403C494.579 49.7893 497.663 49.4905 500.964 48.5439L501.242 48.4636Z" fill="#1B2236"/>
<path d="M511.348 63.5477C512.335 61.7956 513.131 59.888 513.736 57.8247C513.918 57.2058 514.077 56.5801 514.212 55.9477C514.371 55.322 514.495 54.6862 514.585 54.0403L514.591 53.2577C517.635 53.8272 520.926 53.6846 524.463 52.8301L524.745 52.7631C523.994 53.9622 523.263 55.7768 522.55 58.2068C522.362 58.8487 522.176 59.5661 521.993 60.359C521.84 61.1357 521.686 61.9994 521.532 62.95C520.558 62.7889 519.565 62.6966 518.551 62.673C517.567 62.6332 516.615 62.6528 515.695 62.7316C514.806 62.7943 513.978 62.9 513.212 63.0489C512.469 63.2044 511.848 63.3707 511.348 63.5477ZM499.989 104.434C501.44 101.1 502.682 98.0532 503.716 95.294C504.779 92.5185 505.647 89.9846 506.319 87.6921C506.864 85.8352 507.349 84.0977 507.774 82.4795C508.228 80.8451 508.621 79.2923 508.953 77.8211C509.292 76.3271 509.58 74.8802 509.816 73.4806C510.075 72.0877 510.303 70.6732 510.5 69.2372L510.49 68.6365C511.935 68.8863 513.417 68.9722 514.933 68.8943C516.48 68.8002 518.093 68.5638 519.772 68.1851L520.053 68.1182C517.744 71.7479 515.553 77.0932 513.482 84.154L513.129 85.3576C511.239 91.7994 510.086 97.5114 509.67 102.493L509.582 103.812C508.563 103.638 507.569 103.545 506.601 103.535C505.663 103.509 504.772 103.534 503.928 103.61C503.107 103.693 502.351 103.807 501.661 103.953C500.994 104.106 500.436 104.266 499.989 104.434Z" fill="#1B2236"/>
<path d="M528.631 81.5053C529.685 80.3522 531.107 79.452 532.897 78.8048L534.932 78.0655L544.315 75.914C545.486 76.6962 546.853 77.8997 548.416 79.5244C549.904 81.0728 551.174 82.8872 552.227 84.9677C553.546 87.5949 554.227 90.1666 554.27 92.683C554.404 95.1549 554.062 97.6901 553.243 100.289C551.192 106.758 549.899 111.872 549.363 115.629L549.214 116.942C547.616 116.594 546.129 116.436 544.754 116.468C542.54 116.514 540.822 116.731 539.602 117.12C542.561 111.316 545.078 105.399 547.155 99.3673C547.256 99.0736 547.361 98.7687 547.47 98.4524C548.357 95.8773 548.627 93.772 548.28 92.1366C547.58 89.5458 546.179 87.2314 544.076 85.1934C542.183 83.3539 539.189 81.1863 535.096 78.6904C534.54 79.1307 534.021 80.0511 533.539 81.4517C533.236 82.3327 532.986 83.5353 532.79 85.0595L528.631 81.5053ZM532.453 114.658C531.321 113.763 529.603 112.11 527.3 109.7C525.572 107.892 524.099 105.566 522.881 102.721C522.213 99.9639 522.209 97.6255 522.87 95.7054C522.886 95.6602 522.905 95.6038 522.929 95.536C524.209 92.9194 526.236 91.1412 529.01 90.2014C533.695 88.6308 538.835 88.7834 544.43 90.6594C536.669 90.8171 531.71 92.268 529.552 95.012C529.101 95.5893 528.77 96.1829 528.56 96.7928C528.202 97.8319 528.245 98.8825 528.688 99.9446C529.954 102.579 531.14 104.453 532.247 105.567C535.644 108.985 538.621 111.273 541.178 112.432L532.453 114.658Z" fill="#1B2236"/>
<path d="M144.963 100.892C144.091 101.354 143.273 101.858 142.51 102.405C141.748 102.952 141.053 103.511 140.428 104.083C139.802 104.654 139.259 105.207 138.798 105.741C138.337 106.276 137.972 106.76 137.704 107.195C136.827 105.97 135.471 104.161 133.635 101.768C131.8 99.3742 129.466 96.3784 126.634 92.7803C125.386 93.1291 124.147 93.5003 122.916 93.8937C121.708 94.2787 120.479 94.7099 119.229 95.1874C118.872 95.3238 118.553 95.4586 118.271 95.5918C117.981 95.7026 117.724 95.8007 117.501 95.8859C113.64 97.361 110.57 98.7641 108.291 100.095L107.982 100.29C108.079 104.294 108.201 107.457 108.346 109.78C108.492 112.103 108.697 113.61 108.962 114.302L109.128 114.737C106.22 116.564 104.319 118.416 103.424 120.292C103.779 116.601 104.065 112.464 104.283 107.88C104.492 103.273 104.63 98.1436 104.696 92.4919C104.789 82.2263 104.1 73.8963 102.629 67.5019L102.251 66.1117C104.863 64.7813 107.304 62.7362 109.574 59.9762C112.799 66.3402 118.295 73.9331 126.065 82.755C134.44 92.2917 140.739 98.3375 144.963 100.892ZM124.317 89.8291L121.126 85.7928C117.758 81.5297 115.018 78.2414 112.907 75.9279C110.809 73.5836 109.338 72.1764 108.493 71.7062C107.976 73.8989 107.762 80.5022 107.852 91.5162L107.888 96.0291C109.069 95.7058 110.297 95.3389 111.573 94.9284C112.87 94.5094 114.222 94.0312 115.628 93.4941L116.331 93.2255C119.656 91.9551 122.319 90.8229 124.317 89.8291Z" stroke="#1B2236" stroke-width="2" mask="url(#path-3-outside-1_2_958)"/>
<path d="M152.919 102.477C152.408 98.8776 151.869 95.6319 151.304 92.7402C150.755 89.8193 150.166 87.2063 149.538 84.9014C149.028 83.0344 148.531 81.3005 148.045 79.6996C147.575 78.0694 147.097 76.5408 146.609 75.1139C146.114 73.6639 145.601 72.2809 145.069 70.965C144.559 69.6428 144.013 68.3185 143.428 66.9921L143.104 66.4861C144.466 65.9413 145.773 65.2384 147.024 64.3772C148.291 63.4867 149.541 62.4401 150.774 61.2374L150.978 61.0331C150.93 61.7644 150.889 62.568 150.855 63.4439C150.815 64.2967 150.788 65.1956 150.773 66.1406L157.063 59.3738C158.054 59.3759 159.317 59.5143 160.853 59.7888C162.406 60.034 164.027 60.4835 165.716 61.1373C167.398 61.7681 169.042 62.6199 170.647 63.6928C172.269 64.7363 173.63 66.0491 174.73 67.6311L169.169 71.8961C167.753 70.4251 166.274 69.2684 164.732 68.426C163.183 67.5606 161.663 66.9351 160.171 66.5495C158.673 66.1408 157.257 65.9449 155.925 65.9616C154.586 65.9553 153.421 66.0872 152.43 66.3575C151.946 66.4895 151.471 66.6561 151.006 66.8572L150.971 66.8666C151.112 67.7446 151.413 69.1234 151.876 71.0029C152.356 72.8531 152.992 75.2304 153.784 78.1346L154.114 79.3446C155.88 85.8215 157.892 91.2904 160.148 95.7515L160.764 96.9208C159.897 97.2812 159.056 97.696 158.243 98.1654C157.43 98.6347 156.676 99.1376 155.98 99.674C155.301 100.181 154.695 100.681 154.161 101.173C153.626 101.666 153.212 102.1 152.919 102.477Z" stroke="#1B2236" stroke-width="2" mask="url(#path-3-outside-1_2_958)"/>
<path d="M177.558 52.365C177.589 50.3543 177.377 48.298 176.923 46.1962C176.787 45.5657 176.628 44.9402 176.445 44.3197C176.286 43.6942 176.091 43.0763 175.862 42.4659L175.493 41.7757C178.44 40.8219 181.263 39.125 183.963 36.6848L184.178 36.4918C184.091 37.9035 184.315 39.8472 184.85 42.3226C184.991 42.9765 185.17 43.6954 185.388 44.4793C185.625 45.2348 185.902 46.0671 186.22 46.976C185.288 47.2994 184.371 47.6929 183.469 48.1564C182.585 48.5915 181.758 49.0633 180.988 49.5717C180.236 50.0517 179.56 50.5399 178.958 51.0364C178.38 51.5278 177.913 51.9707 177.558 52.365ZM187.105 93.7117C186.788 90.0896 186.424 86.8196 186.014 83.9018C185.623 80.9556 185.175 78.3149 184.671 75.9796C184.263 74.088 183.859 72.3298 183.46 70.7052C183.078 69.0522 182.682 67.5001 182.271 66.049C181.855 64.5746 181.417 63.1661 180.956 61.8235C180.519 60.4759 180.044 59.1242 179.531 57.7684L179.235 57.2457C180.624 56.7748 181.966 56.1429 183.262 55.3501C184.575 54.5289 185.88 53.5508 187.175 52.4159L187.389 52.2229C187.094 56.515 187.722 62.2574 189.274 69.4502L189.539 70.6763C190.955 77.2385 192.67 82.8075 194.685 87.3832L195.237 88.5838C194.258 88.9173 193.341 89.3107 192.485 89.7642C191.648 90.1892 190.877 90.6367 190.172 91.1066C189.49 91.5715 188.881 92.0329 188.345 92.4909C187.831 92.9439 187.418 93.3508 187.105 93.7117Z" stroke="#1B2236" stroke-width="2" mask="url(#path-3-outside-1_2_958)"/>
<path d="M208.05 89.4386C207.941 85.7946 207.657 81.9874 207.199 78.0168C206.765 74.042 206.159 69.8548 205.383 65.4552C205.25 64.7023 205.128 64.0083 205.016 63.373C204.904 62.7378 204.79 62.1634 204.675 61.65L203.044 53.6409C201.358 53.9869 199.763 54.3654 198.259 54.7763C196.778 55.1832 195.354 55.6405 193.988 56.1484C194.227 55.5727 194.41 54.8247 194.539 53.9043C194.64 52.9646 194.657 51.8941 194.591 50.6929L195.186 50.7697C195.906 50.8611 196.851 50.8521 198.02 50.7428C199.185 50.61 200.598 50.4335 202.257 50.2136C201.753 48.0463 201.286 46.1516 200.854 44.5296C200.422 42.9076 200.011 41.5367 199.619 40.4171L199.195 39.2546C200.602 38.8367 201.967 38.2561 203.291 37.513C204.635 36.7422 206.05 35.7527 207.535 34.5445C207.615 38.8486 208.001 43.7174 208.693 49.1509C210.472 48.7883 212.114 48.4015 213.619 47.9906C215.143 47.5519 216.552 47.0848 217.848 46.5894C217.353 48.3263 217.176 50.1406 217.316 52.0325L216.726 51.991C215.893 51.9439 214.847 51.9951 213.588 52.1445C212.324 52.2704 210.849 52.4337 209.162 52.6343C209.325 53.6972 209.488 54.7601 209.651 55.823C209.838 56.8817 210.031 57.9757 210.231 59.105L210.448 60.3402C211.472 66.0062 212.419 70.7518 213.288 74.5771C214.157 78.4024 215.016 81.344 215.864 83.402L216.37 84.6227C215.544 84.8898 214.707 85.2316 213.859 85.6481C213.006 86.0411 212.197 86.475 211.432 86.9497C210.686 87.3967 210.012 87.843 209.412 88.2886C208.811 88.7342 208.357 89.1175 208.05 89.4386Z" stroke="#1B2236" stroke-width="2" mask="url(#path-3-outside-1_2_958)"/>
<path d="M229.348 85.7256C229.438 82.0811 229.363 78.264 229.122 74.2744C228.905 70.2818 228.529 66.0679 227.994 61.6324C227.215 55.3735 226.451 50.1355 225.701 45.9184C224.976 41.6985 224.277 38.4981 223.605 36.3171L223.245 35.1332C224.648 34.7955 226.043 34.2903 227.43 33.6177C228.814 32.9214 230.203 32.068 231.597 31.0575L231.829 30.8852C231.746 33.5904 231.757 36.4767 231.863 39.5442C231.968 42.6117 232.186 45.9182 232.518 49.4638L239.726 43.6852C240.41 43.7711 241.201 43.9404 242.097 44.1932C243.018 44.4431 243.985 44.7836 245 45.2147C246.012 45.6221 247.047 46.1229 248.105 46.7172C249.187 47.3086 250.208 47.9915 251.168 48.7661C252.148 49.5142 253.057 50.3671 253.895 51.3249C254.729 52.2589 255.432 53.2932 256.002 54.4276C257.201 56.5931 258 59.0235 258.397 61.7188C258.934 65.1675 259.466 68.1835 259.994 70.7668C260.519 73.3264 261.055 75.4756 261.602 77.2145L262.041 78.461C261.059 78.6998 260.122 79.0054 259.228 79.3779C258.355 79.7238 257.546 80.0981 256.801 80.5009C256.079 80.9008 255.43 81.304 254.853 81.7105C254.276 82.1169 253.815 82.4853 253.47 82.8158C253.646 76.4898 253.383 70.4213 252.682 64.6101C252.511 63.596 252.354 62.6885 252.209 61.8878C252.088 61.0842 251.942 60.3679 251.769 59.739C251.618 59.0834 251.428 58.5047 251.199 58.003C250.991 57.4746 250.716 56.9904 250.374 56.5503C249.563 55.6134 248.658 54.7961 247.66 54.0984C246.685 53.3978 245.507 52.806 244.125 52.3229C242.74 51.8162 241.114 51.3988 239.245 51.0707C237.398 50.716 235.197 50.428 232.644 50.2066L232.608 50.2109C232.69 51.0914 232.774 51.9837 232.859 52.8879C232.965 53.7655 233.072 54.6549 233.181 55.5562L233.331 56.8015C234.044 62.5149 234.73 67.3051 235.389 71.1721C236.048 75.0391 236.745 78.0232 237.48 80.1244L237.919 81.3709C236.913 81.6125 235.964 81.9196 235.07 82.2921C234.198 82.638 233.388 83.0123 232.643 83.4151C231.921 83.815 231.272 84.2182 230.695 84.6246C230.142 85.0282 229.693 85.3952 229.348 85.7256Z" stroke="#1B2236" stroke-width="2" mask="url(#path-3-outside-1_2_958)"/>
<path d="M272.631 80.5164C273.31 73.3239 273.574 67.3636 273.424 62.6357C273.349 60.2717 273.296 58.9826 273.265 58.7684C273.04 53.2062 272.499 48.2158 271.641 43.7971L271.443 43.2298C274.322 42.8034 277.215 41.6954 280.122 39.9058L280.368 39.7545C279.935 41.1786 279.474 42.8187 278.983 44.6748L286.672 39.5538C288.045 39.8686 289.75 40.5075 291.789 41.4704C293.706 42.3893 295.539 43.6337 297.286 45.2035L310.957 38.7804C312.329 39.0953 314.035 39.7341 316.073 40.697C317.967 41.6168 319.799 42.8611 321.57 44.4301C323.736 46.369 325.286 48.5307 326.223 50.915C327.227 53.1778 327.808 55.6691 327.967 58.3889C328.403 65.3308 329.012 70.5701 329.794 74.1067L330.121 75.387C328.528 75.629 327.082 76.0097 325.784 76.5291C323.73 77.3594 322.203 78.1729 321.2 78.9697C321.932 72.6839 322.205 66.6158 322.019 60.7655C321.971 60.0021 321.937 59.322 321.918 58.725C321.831 55.9789 321.335 53.9152 320.43 52.5337C318.904 50.4071 316.772 48.7421 314.032 47.5385C309.669 45.6218 305.815 44.7167 302.472 44.8232C300.801 44.8764 299.257 45.1766 297.84 45.7236C299.715 47.5523 301.081 49.5405 301.938 51.6884C302.942 53.9511 303.524 56.4424 303.682 59.1623C304.118 66.1042 304.727 71.3434 305.509 74.8801L305.837 76.1604C304.243 76.4024 302.797 76.7831 301.499 77.3024C299.446 78.1327 297.918 78.9463 296.916 79.7431C297.648 73.4572 297.92 67.3891 297.734 61.5388C297.686 60.7755 297.652 60.0953 297.633 59.4983C297.546 56.7523 297.05 54.6885 296.145 53.307C294.646 51.2513 292.513 49.5863 289.748 48.3119C287.322 47.194 283.753 46.232 279.043 45.4259L279.007 45.427C278.895 47.1755 278.935 51.0465 279.126 57.0401L279.166 58.2937C279.379 65.0036 280.066 70.7902 281.224 75.6534L281.552 76.9337C279.934 77.1765 278.488 77.5571 277.214 78.0758C275.161 78.9061 273.633 79.7196 272.631 80.5164Z" stroke="#1B2236" stroke-width="2" mask="url(#path-3-outside-1_2_958)"/>
<path d="M348.056 44.5268L348.018 44.5608C347.26 45.8136 346.409 47.9349 345.466 50.9245C344.782 53.0663 344.391 55.0796 344.295 56.9645C344.257 57.7041 344.276 58.4826 344.354 59.3C344.556 61.4156 345.329 63.5963 346.673 65.8424C348.06 68.1863 350.035 70.0222 352.598 71.3501C354.998 72.5978 358.461 73.8643 362.988 75.1496L363.026 75.1156C363.665 73.8567 364.466 71.5295 365.43 68.1343C366.014 66.083 366.349 64.2104 366.436 62.5164C366.483 61.6097 366.465 60.8074 366.381 60.1093C366.131 57.9913 365.358 55.8105 364.062 53.567C363.007 51.7425 361.032 49.9185 358.135 48.0951C355.864 46.6626 352.505 45.4732 348.056 44.5268ZM354.971 80.3353C353.558 79.9038 351.899 79.1248 349.995 77.9983C348.115 76.873 346.393 75.4806 344.828 73.8213C342.832 71.6853 341.478 69.4029 340.766 66.974C339.865 64.4877 339.481 61.956 339.613 59.3792C339.617 59.3077 339.619 59.2599 339.621 59.2361C339.752 56.6831 340.472 54.0767 341.781 51.4169C342.823 49.2935 344.099 47.5051 345.609 46.0517C346.314 45.3703 347.063 44.7628 347.856 44.2295L355.699 39.6448C356.852 40.0151 358.521 40.8305 360.704 42.091C362.33 43.0358 364.042 44.4156 365.838 46.2304C367.856 48.3914 369.23 50.7467 369.961 53.2961C370.778 56.0174 371.139 58.5239 371.045 60.8156L371.038 60.9588C370.869 64.2514 370.209 66.837 369.06 68.7156C367.284 71.6146 365.823 73.525 364.675 74.4469C364.051 74.9411 363.624 75.3497 363.392 75.6727L354.971 80.3353Z" stroke="#1B2236" stroke-width="2" mask="url(#path-3-outside-1_2_958)"/>
<path d="M389.212 66.7494C390.029 70.1134 391.846 72.9307 394.664 75.2013C396.487 76.7087 399.809 78.1473 404.63 79.5171L404.67 79.4856C404.959 79.0618 405.336 78.3956 405.8 77.4869C406.265 76.5783 406.719 75.5601 407.16 74.4324C407.629 73.2837 408.042 72.0926 408.399 70.8591C408.783 69.6045 409.038 68.4313 409.163 67.3395C409.302 66.129 409.268 64.8506 409.061 63.5043C408.858 62.1344 408.458 60.7901 407.864 59.4716C407.296 58.132 406.504 56.8629 405.487 55.6643C404.496 54.4447 403.26 53.3773 401.777 52.462C400.677 51.7829 399.314 51.0857 397.689 50.3705C396.087 49.658 394.211 48.9261 392.061 48.1748C391.005 52.9835 390.091 58.4457 389.318 64.5613L389.212 66.7494ZM378.322 95.3686C379.255 91.8443 380.067 88.1139 380.759 84.1772C381.474 80.2433 382.086 76.057 382.594 71.6184C383.288 65.3495 383.76 60.0771 384.009 55.8012C384.282 51.5281 384.345 48.2528 384.197 45.9755L384.122 44.7405C385.565 44.7374 387.039 44.5696 388.544 44.237C390.052 43.8807 391.689 43.3348 393.457 42.5995C393.256 43.2979 393.067 44.0097 392.888 44.7346C392.708 45.4595 392.528 46.1963 392.346 46.945L399.972 43.3458C400.662 43.6172 401.447 44.0077 402.327 44.5173C403.233 45.0058 404.129 45.5774 405.016 46.2321C405.929 46.8657 406.788 47.5533 407.593 48.2947C408.425 49.0152 409.111 49.743 409.652 50.4783C410.463 51.5813 411.176 52.7089 411.789 53.8613C412.405 54.99 412.908 56.1657 413.297 57.3886C413.686 58.6114 413.937 59.8787 414.052 61.1903C414.166 62.5019 414.139 63.8936 413.97 65.3652C413.625 66.9127 413.28 68.2439 412.936 69.3587C412.618 70.4525 412.214 71.4643 411.722 72.394C411.255 73.3263 410.657 74.2438 409.928 75.1462C409.226 76.0277 408.306 77.0284 407.168 78.1485C406.898 78.4061 406.567 78.6689 406.176 78.9366C405.784 79.2044 405.329 79.501 404.811 79.8264L396.717 83.7327C395.623 83.415 394.301 82.7826 392.75 81.8355C391.225 80.8673 389.668 79.5587 388.077 77.9096C387.911 80.1991 387.791 82.5059 387.718 84.83C387.644 87.1542 387.599 89.5417 387.583 91.9926L387.67 93.1208L387.657 93.2276C386.191 93.2279 384.705 93.3944 383.2 93.727C381.716 94.086 380.09 94.6332 378.322 95.3686Z" stroke="#1B2236" stroke-width="2" mask="url(#path-3-outside-1_2_958)"/>
<path d="M435.813 89.6814C434.484 89.1056 432.935 88.1269 431.167 86.7452C429.402 85.3399 427.866 83.7447 426.557 81.9593C424.842 79.5923 423.782 77.1595 423.376 74.661C422.923 72.5666 422.856 70.0069 423.175 66.9819L423.2 66.8408C423.647 64.3238 424.685 61.8269 426.313 59.35C427.547 57.4581 429.035 55.8418 430.778 54.5012C431.506 53.9512 432.325 53.4414 433.233 52.9718L441.508 49.4184C442.679 50.0632 444.632 51.4292 447.368 53.5164C449.355 55.034 451.171 57.1036 452.816 59.7252C453.904 62.3448 454.271 64.6544 453.916 66.6538C453.907 66.7008 453.897 66.7596 453.884 66.8302C453.022 69.6373 451.295 71.7087 448.704 73.0442C444.297 75.3188 439.195 75.9659 433.4 74.9853C441.135 73.7868 445.963 71.6718 447.885 68.6402C448.288 68.0082 448.548 67.3628 448.665 66.7042C448.67 66.6807 448.674 66.6572 448.678 66.6336C448.682 66.6101 448.686 66.5866 448.69 66.5631C448.866 65.5751 448.626 64.5376 447.969 63.4504C446.947 61.6917 445.331 59.9974 443.121 58.3675C439.345 55.5858 436.186 53.8358 433.644 53.1176C432.491 54.4173 431.287 56.4843 430.031 59.3187C429.058 61.5237 428.42 63.473 428.119 65.1666C427.977 65.9664 427.9 66.7414 427.889 67.4914C427.846 69.6435 428.343 71.9033 429.378 74.271C430.452 76.6941 432.184 78.7608 434.574 80.4712C436.64 81.9543 439.919 83.6407 444.412 85.5305L444.454 85.5015C444.935 84.9802 445.305 83.9904 445.564 82.532C445.726 81.6146 445.787 80.3878 445.744 78.8515L450.403 81.7172C449.513 83.0393 448.249 84.1493 446.609 85.0471C445.373 85.7253 444.752 86.0761 444.748 86.0997L435.813 89.6814Z" stroke="#1B2236" stroke-width="2" mask="url(#path-3-outside-1_2_958)"/>
<path d="M486.916 75.5263C486.513 72.1106 485.056 69.0912 482.544 66.468C480.955 64.8055 477.835 62.9693 473.184 60.9593L473.141 60.9857C472.193 62.0592 470.965 63.9865 469.456 66.7679C468.393 68.7229 467.637 70.6293 467.188 72.487C467.008 73.2301 466.884 73.9988 466.814 74.7932C466.639 76.84 466.995 79.1261 467.884 81.6516C468.755 84.1482 470.356 86.3176 472.688 88.1599C474.728 89.7841 477.755 91.5979 481.769 93.6012C483.437 88.9412 485.016 83.6329 486.506 77.6763C486.657 76.9509 486.793 76.2342 486.916 75.5263ZM501.242 48.4636C498.558 55.1884 496.171 62.8699 494.082 71.5081C493.874 72.3673 493.582 73.6241 493.207 75.2784C490.959 85.181 489.669 92.3414 489.338 96.7594L489.26 97.9942C486.372 97.6396 483.288 97.9384 480.01 98.8905L479.733 98.9709C480.279 97.6282 480.827 96.2246 481.378 94.7602L473.358 97.4289C472.073 96.7492 470.587 95.6769 468.901 94.2122C466.993 92.5463 465.558 90.8595 464.595 89.1517C463.22 86.7053 462.312 84.2118 461.869 81.6714C461.376 79.34 461.467 76.781 462.141 73.9945C462.163 73.9016 462.175 73.8551 462.175 73.8551C462.942 71.1896 464.132 68.7613 465.743 66.5702C466.879 65.026 468.464 63.5044 470.498 62.0055C471.126 61.5429 471.974 61.0845 473.043 60.6301L481.556 57.749C482.841 58.3302 484.344 59.382 486.065 60.9045C487.179 61.8868 488.296 63.1154 489.414 64.5903C490.295 60.1334 491.036 55.495 491.637 50.6751L491.658 49.9796L491.689 49.5448L491.714 49.4403C494.579 49.7893 497.663 49.4905 500.964 48.5439L501.242 48.4636Z" stroke="#1B2236" stroke-width="2" mask="url(#path-3-outside-1_2_958)"/>
<path d="M511.348 63.5477C512.335 61.7956 513.131 59.888 513.736 57.8247C513.918 57.2058 514.077 56.5801 514.212 55.9477C514.371 55.322 514.495 54.6862 514.585 54.0403L514.591 53.2577C517.635 53.8272 520.926 53.6846 524.463 52.8301L524.745 52.7631C523.994 53.9622 523.263 55.7768 522.55 58.2068C522.362 58.8487 522.176 59.5661 521.993 60.359C521.84 61.1357 521.686 61.9994 521.532 62.95C520.558 62.7889 519.565 62.6966 518.551 62.673C517.567 62.6332 516.615 62.6528 515.695 62.7316C514.806 62.7943 513.978 62.9 513.212 63.0489C512.469 63.2044 511.848 63.3707 511.348 63.5477ZM499.989 104.434C501.44 101.1 502.682 98.0532 503.716 95.294C504.779 92.5185 505.647 89.9846 506.319 87.6921C506.864 85.8352 507.349 84.0977 507.774 82.4795C508.228 80.8451 508.621 79.2923 508.953 77.8211C509.292 76.3271 509.58 74.8802 509.816 73.4806C510.075 72.0877 510.303 70.6732 510.5 69.2372L510.49 68.6365C511.935 68.8863 513.417 68.9722 514.933 68.8943C516.48 68.8002 518.093 68.5638 519.772 68.1851L520.053 68.1182C517.744 71.7479 515.553 77.0932 513.482 84.154L513.129 85.3576C511.239 91.7994 510.086 97.5114 509.67 102.493L509.582 103.812C508.563 103.638 507.569 103.545 506.601 103.535C505.663 103.509 504.772 103.534 503.928 103.61C503.107 103.693 502.351 103.807 501.661 103.953C500.994 104.106 500.436 104.266 499.989 104.434Z" stroke="#1B2236" stroke-width="2" mask="url(#path-3-outside-1_2_958)"/>
<path d="M528.631 81.5053C529.685 80.3522 531.107 79.452 532.897 78.8048L534.932 78.0655L544.315 75.914C545.486 76.6962 546.853 77.8997 548.416 79.5244C549.904 81.0728 551.174 82.8872 552.227 84.9677C553.546 87.5949 554.227 90.1666 554.27 92.683C554.404 95.1549 554.062 97.6901 553.243 100.289C551.192 106.758 549.899 111.872 549.363 115.629L549.214 116.942C547.616 116.594 546.129 116.436 544.754 116.468C542.54 116.514 540.822 116.731 539.602 117.12C542.561 111.316 545.078 105.399 547.155 99.3673C547.256 99.0736 547.361 98.7687 547.47 98.4524C548.357 95.8773 548.627 93.772 548.28 92.1366C547.58 89.5458 546.179 87.2314 544.076 85.1934C542.183 83.3539 539.189 81.1863 535.096 78.6904C534.54 79.1307 534.021 80.0511 533.539 81.4517C533.236 82.3327 532.986 83.5353 532.79 85.0595L528.631 81.5053ZM532.453 114.658C531.321 113.763 529.603 112.11 527.3 109.7C525.572 107.892 524.099 105.566 522.881 102.721C522.213 99.9639 522.209 97.6255 522.87 95.7054C522.886 95.6602 522.905 95.6038 522.929 95.536C524.209 92.9194 526.236 91.1412 529.01 90.2014C533.695 88.6308 538.835 88.7834 544.43 90.6594C536.669 90.8171 531.71 92.268 529.552 95.012C529.101 95.5893 528.77 96.1829 528.56 96.7928C528.202 97.8319 528.245 98.8825 528.688 99.9446C529.954 102.579 531.14 104.453 532.247 105.567C535.644 108.985 538.621 111.273 541.178 112.432L532.453 114.658Z" stroke="#1B2236" stroke-width="2" mask="url(#path-3-outside-1_2_958)"/>
<rect x="102.469" y="51.3688" width="14.4702" height="14.4702" transform="rotate(24.8261 102.469 51.3688)" fill="#1B2236"/>
<path d="M132.554 163.739C133.804 163.258 134.83 162.995 135.632 162.95C136.433 162.904 137.133 162.908 137.731 162.96C138.021 162.99 138.25 163.014 138.418 163.03C138.597 163.021 138.754 162.991 138.889 162.94C139.081 162.866 139.169 162.721 139.154 162.505C139.158 162.281 139.097 161.972 138.97 161.576L139.634 161.321C139.791 161.685 139.967 162.112 140.163 162.601C140.379 163.084 140.67 163.719 141.036 164.506C141.422 165.287 141.929 166.313 142.557 167.585L141.894 167.84C141.356 166.937 140.657 166.125 139.798 165.406C138.958 164.679 138.03 164.168 137.014 163.872C136.017 163.568 135.019 163.609 134.019 163.993C133.172 164.318 132.57 164.792 132.214 165.413C131.857 166.035 131.867 166.727 132.244 167.491C132.555 168.118 132.996 168.595 133.569 168.92C134.133 169.228 134.902 169.487 135.876 169.698C136.869 169.902 138.156 170.144 139.737 170.425C140.863 170.618 141.902 170.845 142.854 171.105C143.826 171.357 144.687 171.733 145.437 172.232C146.187 172.731 146.792 173.447 147.253 174.38C147.815 175.516 147.915 176.598 147.552 177.625C147.209 178.645 146.534 179.571 145.525 180.402C144.509 181.217 143.298 181.894 141.894 182.433C140.586 182.936 139.487 183.237 138.598 183.337C137.727 183.429 136.969 183.468 136.321 183.454C135.78 183.379 135.395 183.386 135.164 183.475C134.971 183.549 134.873 183.698 134.869 183.921C134.885 184.137 134.956 184.443 135.082 184.839L134.419 185.094C134.239 184.638 134.007 184.121 133.722 183.545C133.448 182.943 133.08 182.176 132.619 181.243C132.177 180.303 131.6 179.112 130.888 177.67L131.552 177.415C132.215 178.573 132.976 179.603 133.833 180.504C134.71 181.399 135.673 182.028 136.723 182.392C137.783 182.731 138.929 182.664 140.16 182.191C140.872 181.918 141.432 181.592 141.84 181.213C142.259 180.81 142.52 180.366 142.625 179.882C142.729 179.398 142.651 178.893 142.391 178.367C142.039 177.655 141.55 177.106 140.925 176.72C140.291 176.318 139.544 176.009 138.683 175.795C137.832 175.557 136.876 175.359 135.814 175.202C134.642 175.006 133.527 174.789 132.47 174.549C131.413 174.309 130.477 173.942 129.66 173.449C128.863 172.947 128.234 172.23 127.773 171.297C127.22 170.178 127.109 169.141 127.438 168.187C127.759 167.215 128.385 166.35 129.313 165.589C130.242 164.828 131.322 164.212 132.554 163.739Z" fill="white"/>
<path d="M153.439 178.129C152.513 178.427 151.689 178.514 150.968 178.392C150.247 178.269 149.645 177.999 149.16 177.584C148.696 177.162 148.348 176.673 148.119 176.116C147.817 175.386 147.76 174.735 147.948 174.162C148.129 173.573 148.457 173.044 148.934 172.576C149.423 172.084 149.963 171.634 150.555 171.228C151.146 170.821 151.702 170.436 152.221 170.072C152.754 169.685 153.157 169.309 153.431 168.945C153.698 168.564 153.749 168.174 153.583 167.774L152.625 165.453C152.51 165.174 152.325 164.889 152.07 164.597C151.835 164.298 151.519 164.075 151.123 163.926C150.727 163.778 150.233 163.799 149.641 163.989C149.326 164.09 149.038 164.231 148.778 164.413C148.531 164.572 148.328 164.755 148.168 164.964C148.952 164.968 149.587 165.128 150.075 165.444C150.556 165.743 150.897 166.136 151.098 166.622C151.385 167.318 151.335 167.954 150.948 168.531C150.562 169.109 149.993 169.518 149.244 169.758C148.455 170.012 147.754 169.991 147.141 169.695C146.528 169.4 146.088 168.931 145.823 168.287C145.6 167.748 145.561 167.249 145.706 166.789C145.863 166.305 146.183 165.808 146.665 165.299C147.135 164.813 147.758 164.377 148.536 163.989C149.307 163.584 150.145 163.236 151.052 162.944C152.019 162.634 152.952 162.433 153.852 162.341C154.744 162.231 155.598 162.351 156.412 162.7C156.984 162.949 157.448 163.342 157.803 163.878C158.158 164.414 158.523 165.134 158.896 166.038L161.783 173.027C161.963 173.462 162.115 173.748 162.238 173.885C162.382 174.016 162.542 174.053 162.72 173.996C162.878 173.946 163.008 173.855 163.11 173.724C163.231 173.586 163.343 173.452 163.446 173.32L163.924 173.669C163.627 174.138 163.185 174.556 162.599 174.921C162.033 175.28 161.395 175.574 160.685 175.802C159.837 176.074 159.141 176.2 158.596 176.178C158.063 176.132 157.638 175.993 157.318 175.761C157.012 175.505 156.777 175.206 156.613 174.865C156.436 175.572 156.111 176.218 155.638 176.803C155.178 177.364 154.445 177.806 153.439 178.129ZM155.387 175.141C155.604 175.071 155.78 174.985 155.917 174.882C156.065 174.755 156.193 174.577 156.298 174.346L154.025 168.843C153.98 169.113 153.886 169.399 153.743 169.702C153.613 169.98 153.476 170.27 153.332 170.572C153.189 170.874 153.063 171.19 152.954 171.521C152.864 171.845 152.822 172.203 152.828 172.595C152.846 172.963 152.949 173.374 153.135 173.826C153.408 174.486 153.74 174.911 154.131 175.101C154.535 175.267 154.953 175.28 155.387 175.141Z" fill="white"/>
<path d="M163.547 151.927L170.223 170.122C170.494 170.862 170.798 171.329 171.135 171.525C171.491 171.715 171.979 171.722 172.598 171.545L172.801 172.1C172.395 172.196 171.79 172.349 170.985 172.56C170.173 172.752 169.348 172.968 168.51 173.207C167.671 173.447 166.829 173.706 165.983 173.986C165.131 174.249 164.489 174.452 164.056 174.595L163.853 174.04C164.472 173.863 164.852 173.609 164.995 173.276C165.158 172.938 165.103 172.4 164.832 171.66L159.319 156.634C159.029 155.841 158.696 155.295 158.321 154.993C157.939 154.674 157.429 154.606 156.79 154.788L156.586 154.234C157.244 154.104 157.873 153.954 158.472 153.783C159.47 153.498 160.389 153.207 161.228 152.909C162.081 152.588 162.854 152.261 163.547 151.927Z" fill="white"/>
<path d="M183.437 154.374L183.62 154.934C183.278 155.156 182.986 155.5 182.746 155.966C182.52 156.409 182.378 157.109 182.32 158.068L181.741 169.801C181.246 169.888 180.746 169.996 180.242 170.125C179.758 170.248 179.28 170.389 178.808 170.548L169.685 160.102C169.161 159.504 168.712 159.165 168.337 159.088C167.962 159.01 167.663 158.999 167.442 159.056L167.258 158.496C168.082 158.344 168.933 158.175 169.812 157.99C170.684 157.787 171.645 157.551 172.693 157.284C173.318 157.125 173.968 156.941 174.641 156.73C175.335 156.515 175.979 156.313 176.572 156.123L176.756 156.683C176.393 156.775 176.066 156.878 175.775 156.99C175.499 157.08 175.313 157.214 175.219 157.392C175.139 157.547 175.197 157.793 175.394 158.128L181.507 165.584L181.288 166.218L181.523 161.333C181.59 160.006 181.456 158.962 181.119 158.2C180.802 157.434 180.378 156.906 179.847 156.618C179.31 156.312 178.733 156.218 178.116 156.336L177.933 155.776C178.221 155.722 178.569 155.653 178.979 155.568C179.388 155.483 179.786 155.4 180.175 155.321C180.579 155.218 180.901 155.136 181.143 155.074C181.506 154.982 181.926 154.865 182.404 154.724C182.882 154.583 183.226 154.466 183.437 154.374Z" fill="white"/>
<path d="M191.67 152.189C193.462 151.795 194.999 151.953 196.281 152.662C197.578 153.349 198.534 154.779 199.149 156.952L189.59 159.055L189.384 158.556L194.545 157.421C194.317 156.537 194.047 155.738 193.737 155.024C193.422 154.292 193.089 153.727 192.738 153.327C192.387 152.928 192.018 152.77 191.631 152.855C191.082 152.976 190.743 153.461 190.615 154.309C190.482 155.139 190.627 156.49 191.048 158.362L191.231 158.55C191.262 158.734 191.302 158.916 191.353 159.096C191.404 159.275 191.457 159.464 191.513 159.661C191.869 160.918 192.319 161.858 192.863 162.483C193.428 163.102 194.013 163.488 194.618 163.641C195.244 163.789 195.832 163.803 196.382 163.682C196.667 163.62 196.992 163.51 197.359 163.353C197.746 163.191 198.138 162.934 198.535 162.579C198.927 162.207 199.271 161.702 199.567 161.065L200.131 161.112C200.09 161.884 199.896 162.69 199.55 163.529C199.219 164.345 198.692 165.081 197.968 165.736C197.24 166.373 196.265 166.826 195.044 167.095C193.741 167.381 192.484 167.41 191.272 167.181C190.082 166.947 189.018 166.361 188.082 165.422C187.146 164.484 186.422 163.108 185.909 161.295C185.421 159.571 185.371 158.095 185.758 156.865C186.141 155.618 186.851 154.613 187.89 153.85C188.944 153.065 190.204 152.512 191.67 152.189Z" fill="white"/>
<path d="M215.791 147.509C217.398 147.232 218.842 147.238 220.125 147.526C221.424 147.793 222.523 148.415 223.424 149.391C224.324 150.367 224.977 151.772 225.383 153.607C225.789 155.441 225.783 156.96 225.365 158.163C224.947 159.366 224.193 160.306 223.103 160.984C222.034 161.658 220.696 162.134 219.089 162.41C217.503 162.683 216.061 162.686 214.762 162.42C213.463 162.153 212.363 161.531 211.463 160.555C210.563 159.579 209.91 158.174 209.504 156.339C209.098 154.505 209.104 152.986 209.521 151.783C209.939 150.58 210.693 149.64 211.783 148.962C212.869 148.266 214.205 147.782 215.791 147.509ZM215.912 148.053C215.294 148.16 214.9 148.793 214.729 149.954C214.558 151.114 214.742 152.912 215.281 155.345C215.819 157.779 216.415 159.505 217.068 160.524C217.717 161.524 218.351 161.972 218.969 161.865C219.587 161.759 219.983 161.135 220.158 159.992C220.328 158.832 220.144 157.034 219.606 154.601C219.067 152.167 218.471 150.441 217.818 149.422C217.165 148.403 216.53 147.947 215.912 148.053Z" fill="white"/>
<path d="M244.467 143.295C245.215 143.197 245.82 143.268 246.285 143.506C246.746 143.727 247.097 144.046 247.336 144.463C247.573 144.863 247.727 145.273 247.798 145.694C247.936 146.517 247.777 147.212 247.32 147.776C246.881 148.32 246.236 148.648 245.385 148.759C244.472 148.878 243.746 148.786 243.207 148.482C242.689 148.176 242.38 147.73 242.282 147.144C242.177 146.522 242.237 145.99 242.46 145.549C242.703 145.106 243.03 144.717 243.441 144.383C243.067 144.432 242.746 144.539 242.477 144.705C242.243 144.83 242.026 144.989 241.825 145.183C241.625 145.378 241.46 145.596 241.331 145.837C241.198 146.06 241.102 146.307 241.041 146.577C241.001 146.844 241.004 147.115 241.05 147.389L242.434 155.626C242.582 156.505 242.89 157.072 243.357 157.329C243.824 157.586 244.536 157.652 245.49 157.528L245.587 158.104C245.107 158.148 244.388 158.223 243.43 158.33C242.489 158.415 241.521 158.523 240.525 158.653C239.591 158.775 238.649 158.917 237.701 159.078C236.749 159.222 236.036 159.333 235.561 159.414L235.464 158.837C236.108 158.753 236.531 158.558 236.734 158.251C236.958 157.941 237.005 157.402 236.876 156.633L235.413 147.929C235.275 147.105 235.049 146.518 234.735 146.166C234.419 145.796 233.928 145.654 233.264 145.741L233.167 145.164C233.84 145.132 234.489 145.076 235.111 144.994C236.149 144.859 237.11 144.705 237.993 144.534C238.894 144.341 239.718 144.131 240.464 143.902L240.797 145.879C240.987 145.368 241.254 144.94 241.599 144.596C241.941 144.233 242.349 143.946 242.823 143.734C243.317 143.52 243.865 143.374 244.467 143.295Z" fill="white"/>
<path d="M255.327 142.095C257.161 141.902 258.663 142.228 259.834 143.073C261.024 143.898 261.77 145.422 262.072 147.645L252.289 148.678L252.156 148.161L257.438 147.603C257.336 146.701 257.182 145.878 256.976 145.136C256.767 144.375 256.517 143.777 256.225 143.342C255.934 142.907 255.59 142.71 255.194 142.752C254.632 142.812 254.227 143.255 253.98 144.082C253.73 144.891 253.682 146.248 253.835 148.151L253.99 148.358C253.994 148.544 254.008 148.729 254.033 148.913C254.058 149.097 254.084 149.289 254.112 149.492C254.286 150.778 254.599 151.76 255.051 152.439C255.523 153.116 256.049 153.564 256.628 153.783C257.228 153.999 257.809 154.077 258.372 154.018C258.663 153.987 259.002 153.914 259.388 153.799C259.795 153.681 260.22 153.469 260.665 153.161C261.107 152.835 261.519 152.372 261.903 151.772L262.457 151.882C262.306 152.643 262 153.421 261.537 154.215C261.092 154.989 260.465 155.661 259.655 156.231C258.842 156.782 257.811 157.124 256.56 157.256C255.227 157.397 253.976 157.287 252.807 156.925C251.658 156.562 250.686 155.863 249.891 154.829C249.095 153.795 248.572 152.35 248.32 150.494C248.08 148.73 248.24 147.26 248.799 146.083C249.355 144.887 250.203 143.969 251.341 143.327C252.498 142.664 253.827 142.254 255.327 142.095Z" fill="white"/>
<path d="M266.775 134.071C267.861 133.979 268.719 134.11 269.348 134.466C269.996 134.801 270.363 135.365 270.45 136.157C270.536 136.949 270.299 137.573 269.737 138.03C269.194 138.466 268.38 138.731 267.294 138.823C266.208 138.915 265.341 138.793 264.693 138.458C264.064 138.102 263.706 137.529 263.619 136.737C263.533 135.945 263.761 135.33 264.304 134.894C264.865 134.437 265.689 134.163 266.775 134.071ZM270.543 140.778L271.861 152.851C271.945 153.625 272.128 154.139 272.409 154.394C272.71 154.648 273.185 154.747 273.833 154.692L273.896 155.272C273.476 155.289 272.848 155.324 272.01 155.376C271.17 155.41 270.312 155.465 269.435 155.539C268.557 155.614 267.672 155.707 266.778 155.82C265.881 155.915 265.205 155.991 264.747 156.048L264.684 155.468C265.331 155.413 265.765 155.237 265.986 154.94C266.227 154.64 266.306 154.104 266.221 153.33L265.265 144.572C265.175 143.743 264.983 143.146 264.69 142.78C264.395 142.396 263.914 142.233 263.245 142.29L263.182 141.709C263.856 141.708 264.507 141.681 265.134 141.627C266.178 141.539 267.146 141.429 268.038 141.297C268.949 141.145 269.784 140.972 270.543 140.778Z" fill="white"/>
<path d="M285.381 139.689C286.344 139.63 287.106 139.694 287.668 139.882C288.249 140.05 288.699 140.282 289.017 140.577C289.358 140.89 289.623 141.319 289.814 141.864C290.004 142.408 290.137 143.151 290.212 144.093L290.808 151.596C290.87 152.372 291.037 152.89 291.31 153.151C291.605 153.411 292.076 153.521 292.725 153.481L292.771 154.063C292.351 154.07 291.711 154.091 290.851 154.126C290.011 154.14 289.183 154.173 288.366 154.224C287.487 154.278 286.631 154.349 285.796 154.438C284.96 154.508 284.334 154.566 283.917 154.61L283.87 154.028C284.415 153.995 284.78 153.833 284.968 153.543C285.155 153.253 285.218 152.721 285.156 151.946L284.441 142.947C284.41 142.559 284.332 142.24 284.207 141.988C284.082 141.736 283.899 141.552 283.658 141.437C283.439 141.321 283.14 141.274 282.764 141.298C282.387 141.321 282.027 141.427 281.685 141.615C281.363 141.802 281.099 142.059 280.894 142.387C280.708 142.695 280.631 143.043 280.661 143.431L281.357 152.18C281.419 152.956 281.565 153.475 281.796 153.739C282.049 154.002 282.436 154.117 282.96 154.085L283.006 154.666C282.607 154.672 282.019 154.69 281.243 154.719C280.466 154.73 279.669 154.761 278.852 154.812C277.973 154.866 277.085 154.939 276.188 155.032C275.289 155.106 274.61 155.167 274.151 155.213L274.105 154.632C274.754 154.592 275.193 154.426 275.422 154.133C275.672 153.84 275.767 153.305 275.705 152.53L275.007 143.753C274.941 142.922 274.767 142.321 274.485 141.949C274.202 141.558 273.725 141.383 273.055 141.425L273.009 140.843C273.683 140.857 274.334 140.845 274.962 140.806C276.009 140.741 276.98 140.653 277.876 140.542C278.791 140.412 279.631 140.258 280.395 140.081L280.554 142.074C280.997 141.305 281.625 140.737 282.438 140.372C283.269 139.987 284.251 139.759 285.381 139.689Z" fill="white"/>
<path d="M300.624 139.025C302.26 138.971 303.686 139.174 304.902 139.633C306.139 140.074 307.116 140.838 307.835 141.925C308.553 143.012 308.952 144.489 309.032 146.357C309.111 148.225 308.839 149.724 308.215 150.856C307.592 151.988 306.682 152.814 305.486 153.335C304.311 153.855 302.906 154.143 301.271 154.197C299.656 154.25 298.23 154.057 296.993 153.617C295.757 153.176 294.779 152.412 294.061 151.325C293.343 150.238 292.944 148.76 292.864 146.893C292.784 145.025 293.057 143.526 293.68 142.394C294.304 141.262 295.214 140.436 296.41 139.915C297.604 139.375 299.009 139.079 300.624 139.025ZM300.648 139.58C300.019 139.601 299.518 140.173 299.146 141.296C298.774 142.419 298.64 144.22 298.746 146.698C298.852 149.176 299.138 150.962 299.604 152.058C300.07 153.135 300.618 153.663 301.247 153.642C301.876 153.621 302.377 153.059 302.75 151.954C303.122 150.83 303.255 149.03 303.15 146.552C303.044 144.074 302.758 142.287 302.291 141.192C301.825 140.096 301.277 139.559 300.648 139.58Z" fill="white"/>
<path d="M334.515 131.846L334.338 150.497C334.33 151.33 334.45 151.951 334.698 152.359C334.967 152.75 335.427 152.948 336.078 152.953L336.072 153.535C335.422 153.475 334.772 153.443 334.122 153.438C333.072 153.43 332.096 153.451 331.193 153.499C330.291 153.548 329.44 153.644 328.641 153.786L328.818 135.134C328.826 134.302 328.706 133.69 328.458 133.3C328.21 132.891 327.75 132.684 327.079 132.679L327.084 132.096C327.755 132.157 328.406 132.189 329.035 132.194C330.084 132.202 331.06 132.181 331.963 132.132C332.887 132.065 333.738 131.969 334.515 131.846ZM325.511 138.691C326.434 138.697 327.209 138.805 327.837 139.013C328.465 139.203 329.018 139.512 329.497 139.941L329.147 140.244C328.877 140.039 328.574 139.888 328.239 139.793C327.904 139.68 327.59 139.622 327.296 139.62C326.331 139.613 325.602 140.153 325.109 141.241C324.616 142.329 324.359 144.002 324.337 146.26C324.322 147.888 324.404 149.156 324.584 150.064C324.765 150.954 325.011 151.575 325.322 151.929C325.655 152.265 326.01 152.434 326.387 152.437C326.975 152.441 327.501 152.26 327.967 151.893C328.432 151.508 328.667 151.029 328.673 150.455L328.66 151.815C328.233 152.515 327.714 153.039 327.102 153.386C326.491 153.714 325.723 153.875 324.8 153.869C323.604 153.86 322.515 153.593 321.534 153.067C320.574 152.523 319.816 151.685 319.26 150.552C318.704 149.419 318.435 147.946 318.452 146.133C318.468 144.449 318.764 143.063 319.341 141.976C319.939 140.87 320.766 140.043 321.82 139.496C322.875 138.949 324.105 138.68 325.511 138.691Z" fill="white"/>
<path d="M345.509 139.107C347.354 139.17 348.78 139.701 349.786 140.698C350.813 141.678 351.278 143.286 351.179 145.524L341.334 145.186L341.295 144.656L346.61 144.839C346.671 143.934 346.666 143.1 346.595 142.339C346.524 141.558 346.384 140.933 346.173 140.463C345.963 139.993 345.659 139.751 345.26 139.737C344.694 139.718 344.215 140.099 343.824 140.882C343.433 141.647 343.143 142.979 342.954 144.88L343.07 145.106C343.041 145.29 343.022 145.475 343.014 145.66C343.006 145.845 342.998 146.039 342.989 146.242C342.931 147.537 343.065 148.55 343.39 149.284C343.735 150.018 344.174 150.533 344.707 150.829C345.261 151.126 345.821 151.284 346.388 151.303C346.681 151.314 347.029 151.288 347.43 151.228C347.853 151.169 348.311 151.018 348.805 150.775C349.299 150.515 349.79 150.115 350.275 149.576L350.803 149.761C350.518 150.492 350.077 151.217 349.478 151.937C348.901 152.64 348.162 153.216 347.26 153.667C346.359 154.099 345.279 154.293 344.021 154.25C342.679 154.204 341.463 153.921 340.373 153.402C339.304 152.884 338.469 152.059 337.867 150.927C337.266 149.796 337.007 148.296 337.09 146.429C337.168 144.654 337.588 143.224 338.35 142.139C339.113 141.035 340.114 140.246 341.353 139.77C342.614 139.276 343.999 139.055 345.509 139.107Z" fill="white"/>
<path d="M373.966 140.749C374.927 140.827 375.668 140.999 376.188 141.264C376.731 141.512 377.132 141.805 377.392 142.142C377.671 142.499 377.855 142.96 377.943 143.525C378.032 144.09 378.027 144.842 377.928 145.782L377.145 153.272C377.065 154.046 377.114 154.579 377.294 154.873C377.474 155.166 377.836 155.335 378.379 155.379L378.319 155.959C377.923 155.909 377.33 155.842 376.538 155.759C375.768 155.659 375.008 155.579 374.255 155.518C373.44 155.451 372.645 155.405 371.868 155.379C371.092 155.335 370.505 155.306 370.106 155.292L370.167 154.711C370.585 154.745 370.892 154.631 371.088 154.368C371.284 154.105 371.423 153.587 371.504 152.813L372.443 143.83C372.483 143.444 372.475 143.118 372.418 142.853C372.362 142.588 372.246 142.384 372.072 142.239C371.918 142.097 371.695 142.014 371.402 141.99C371.026 141.959 370.652 142.012 370.279 142.149C369.927 142.288 369.62 142.505 369.358 142.799C369.118 143.077 368.978 143.409 368.937 143.796L368.024 152.53C367.944 153.304 367.972 153.836 368.11 154.126C368.249 154.416 368.527 154.578 368.945 154.612L368.884 155.192C368.531 155.145 367.989 155.083 367.26 155.005C366.553 154.91 365.824 154.832 365.072 154.771C364.194 154.7 363.304 154.646 362.402 154.61C361.501 154.555 360.82 154.518 360.359 154.499L360.419 153.919C361.067 153.972 361.531 153.87 361.81 153.614C362.111 153.36 362.302 152.846 362.383 152.072L363.298 143.31C363.385 142.481 363.323 141.863 363.113 141.455C362.905 141.03 362.466 140.79 361.797 140.735L361.858 140.155C362.521 140.264 363.166 140.345 363.793 140.396C364.838 140.481 365.812 140.532 366.716 140.55C367.644 140.551 368.5 140.518 369.287 140.452L369.079 142.442C369.637 141.744 370.329 141.271 371.156 141.022C371.984 140.755 372.921 140.664 373.966 140.749ZM383.4 141.516C384.362 141.594 385.102 141.766 385.622 142.031C386.165 142.279 386.567 142.572 386.827 142.909C387.105 143.266 387.289 143.727 387.378 144.292C387.466 144.857 387.461 145.609 387.363 146.548L386.58 154.039C386.499 154.813 386.569 155.348 386.791 155.645C387.034 155.943 387.479 156.119 388.127 156.171L388.066 156.752C387.65 156.699 387.015 156.629 386.16 156.541C385.328 156.436 384.505 156.351 383.69 156.284C382.875 156.218 382.079 156.172 381.302 156.146C380.527 156.102 379.94 156.073 379.541 156.059L379.602 155.478C380.02 155.512 380.327 155.398 380.523 155.135C380.719 154.872 380.857 154.354 380.938 153.58L381.877 144.597C381.918 144.21 381.899 143.884 381.821 143.617C381.744 143.351 381.597 143.144 381.381 142.996C381.185 142.85 380.899 142.762 380.523 142.731C380.147 142.701 379.771 142.772 379.394 142.946C379.039 143.122 378.729 143.366 378.464 143.679C378.223 143.975 378.061 144.315 377.978 144.699L377.875 143.575C378.541 142.644 379.341 142.05 380.274 141.791C381.23 141.516 382.272 141.424 383.4 141.516Z" fill="white"/>
<path d="M392.575 157.592C391.597 157.478 390.821 157.22 390.246 156.818C389.671 156.415 389.278 155.931 389.066 155.365C388.875 154.802 388.823 154.226 388.911 153.639C389.026 152.869 389.316 152.268 389.783 151.837C390.252 151.387 390.821 151.052 391.489 150.831C392.18 150.594 392.895 150.416 393.632 150.296C394.37 150.176 395.064 150.061 395.716 149.95C396.391 149.823 396.945 149.654 397.379 149.443C397.815 149.214 398.065 148.888 398.128 148.466L398.493 146.017C398.537 145.723 398.523 145.395 398.45 145.032C398.398 144.671 398.235 144.344 397.961 144.051C397.688 143.758 397.239 143.576 396.615 143.503C396.282 143.464 395.952 143.473 395.627 143.528C395.324 143.568 395.048 143.648 394.797 143.768C395.49 144.091 395.97 144.492 396.237 144.971C396.507 145.432 396.603 145.919 396.527 146.432C396.417 147.166 396.04 147.71 395.394 148.065C394.748 148.419 394.03 148.55 393.24 148.459C392.408 148.362 391.797 148.058 391.408 147.546C391.018 147.034 390.874 146.439 390.976 145.76C391.061 145.191 391.288 144.733 391.657 144.384C392.051 144.019 392.594 143.708 393.289 143.453C393.959 143.214 394.741 143.08 395.634 143.053C396.53 143.008 397.456 143.041 398.413 143.152C399.433 143.27 400.366 143.472 401.212 143.757C402.061 144.023 402.755 144.477 403.295 145.118C403.671 145.573 403.877 146.11 403.911 146.73C403.946 147.349 403.892 148.136 403.749 149.09L402.649 156.465C402.58 156.924 402.565 157.24 402.603 157.412C402.661 157.587 402.784 157.685 402.971 157.707C403.138 157.726 403.301 157.698 403.46 157.623C403.64 157.551 403.81 157.477 403.969 157.403L404.211 157.907C403.702 158.202 403.091 158.393 402.38 158.478C401.69 158.566 400.97 158.566 400.221 158.479C399.326 158.375 398.643 158.203 398.171 157.961C397.723 157.704 397.418 157.407 397.256 157.071C397.118 156.719 397.066 156.359 397.1 155.989C396.573 156.544 395.946 156.985 395.22 157.311C394.518 157.621 393.636 157.715 392.575 157.592ZM395.868 155.735C396.097 155.761 396.299 155.756 396.474 155.721C396.672 155.669 396.878 155.562 397.093 155.401L397.96 149.594C397.778 149.816 397.545 150.031 397.26 150.241C396.998 150.434 396.725 150.636 396.439 150.846C396.154 151.055 395.876 151.284 395.607 151.533C395.357 151.784 395.133 152.084 394.932 152.434C394.755 152.768 394.631 153.174 394.56 153.651C394.456 154.348 394.528 154.86 394.775 155.188C395.046 155.499 395.411 155.681 395.868 155.735Z" fill="white"/>
<path d="M414.35 141.053L413.565 145.496L416.613 145.915L416.516 146.463L413.468 146.045L411.458 157.426C411.397 157.774 411.424 158.04 411.54 158.224C411.66 158.39 411.885 158.496 412.217 158.542C412.445 158.573 412.724 158.555 413.055 158.488C413.388 158.403 413.716 158.232 414.037 157.977L414.445 158.37C413.894 158.969 413.219 159.419 412.423 159.722C411.65 160.009 410.724 160.078 409.646 159.93C408.962 159.836 408.354 159.669 407.824 159.427C407.31 159.207 406.905 158.917 406.607 158.558C406.222 158.093 406.019 157.56 405.998 156.957C405.98 156.337 406.055 155.551 406.223 154.601L407.87 145.276L405.506 144.951L405.603 144.403L407.967 144.727L408.538 141.491C409.637 141.642 410.648 141.687 411.572 141.627C412.52 141.551 413.446 141.36 414.35 141.053Z" fill="white"/>
<path d="M426.718 140.07L424.882 148.916C425.529 148.268 426.297 147.856 427.187 147.68C428.101 147.489 429.116 147.483 430.23 147.663C431.18 147.816 431.9 148.045 432.392 148.35C432.908 148.64 433.278 148.964 433.503 149.32C433.744 149.697 433.881 150.171 433.912 150.74C433.943 151.309 433.862 152.058 433.669 152.987L432.134 160.386C431.975 161.15 431.991 161.689 432.182 162.002C432.394 162.318 432.82 162.528 433.46 162.631L433.341 163.205C432.932 163.12 432.306 163 431.463 162.845C430.645 162.675 429.834 162.526 429.029 162.396C428.162 162.256 427.312 162.137 426.478 162.041C425.649 161.926 425.026 161.844 424.609 161.795L424.728 161.222C425.265 161.309 425.665 161.232 425.928 160.992C426.191 160.753 426.402 160.251 426.561 159.486L428.402 150.613C428.482 150.231 428.496 149.904 428.446 149.632C428.395 149.361 428.27 149.143 428.069 148.979C427.889 148.818 427.614 148.708 427.242 148.648C426.871 148.588 426.492 148.612 426.107 148.719C425.743 148.829 425.415 149.021 425.124 149.294C424.857 149.552 424.684 149.872 424.605 150.254L422.814 158.882C422.655 159.646 422.651 160.181 422.801 160.488C422.971 160.797 423.314 160.994 423.83 161.077L423.711 161.651C423.323 161.569 422.749 161.458 421.989 161.316C421.233 161.156 420.452 161.012 419.647 160.882C418.78 160.742 417.899 160.618 417.004 160.512C416.113 160.387 415.438 160.297 414.98 160.241L415.099 159.668C415.739 159.771 416.211 159.706 416.515 159.473C416.84 159.244 417.082 158.747 417.241 157.982L420.465 142.447C420.635 141.628 420.636 141.007 420.468 140.585C420.303 140.145 419.891 139.871 419.23 139.764L419.349 139.191C419.998 139.352 420.632 139.483 421.252 139.583C422.284 139.749 423.249 139.877 424.148 139.966C425.072 140.039 425.928 140.074 426.718 140.07Z" fill="white"/>
<path d="M444.98 150.314C446.785 150.656 448.086 151.394 448.883 152.529C449.705 153.649 449.85 155.304 449.317 157.493L439.684 155.671L439.748 155.144L444.949 156.128C445.185 155.245 445.342 154.423 445.42 153.662C445.503 152.883 445.486 152.245 445.37 151.75C445.255 151.255 445.002 150.971 444.612 150.897C444.058 150.793 443.512 151.096 442.974 151.808C442.44 152.502 441.896 153.771 441.34 155.615L441.41 155.855C441.345 156.032 441.291 156.211 441.247 156.392C441.203 156.573 441.157 156.763 441.108 156.962C440.8 158.229 440.735 159.248 440.912 160.019C441.109 160.795 441.442 161.369 441.909 161.741C442.397 162.117 442.918 162.358 443.472 162.463C443.759 162.517 444.107 162.545 444.514 162.546C444.942 162.551 445.423 162.472 445.956 162.308C446.494 162.126 447.055 161.806 447.638 161.349L448.122 161.611C447.7 162.288 447.124 162.936 446.393 163.555C445.688 164.159 444.848 164.615 443.871 164.923C442.9 165.212 441.798 165.24 440.567 165.007C439.254 164.759 438.111 164.296 437.138 163.62C436.186 162.948 435.523 162.009 435.152 160.803C434.78 159.597 434.816 158.081 435.261 156.253C435.683 154.516 436.376 153.171 437.337 152.218C438.303 151.246 439.443 150.619 440.756 150.338C442.095 150.042 443.502 150.034 444.98 150.314Z" fill="white"/>
<path d="M464.904 154.442C465.839 154.653 466.54 154.925 467.006 155.26C467.498 155.581 467.842 155.926 468.038 156.295C468.249 156.686 468.348 157.167 468.335 157.737C468.321 158.307 468.182 159.049 467.916 159.963L465.803 167.25C465.585 168.003 465.538 168.537 465.664 168.852C465.789 169.167 466.116 169.384 466.644 169.503L466.481 170.067C466.1 169.962 465.525 169.814 464.758 169.622C464.016 169.416 463.279 169.231 462.547 169.066C461.755 168.887 460.977 168.731 460.214 168.597C459.457 168.445 458.882 168.335 458.491 168.266L458.655 167.701C459.061 167.793 459.385 167.723 459.625 167.49C459.866 167.258 460.096 166.765 460.314 166.013L462.848 157.273C462.958 156.897 463.008 156.574 462.999 156.304C462.991 156.035 462.913 155.817 462.767 155.65C462.64 155.488 462.435 155.375 462.15 155.311C461.784 155.228 461.405 155.229 461.013 155.312C460.641 155.4 460.299 155.571 459.987 155.826C459.7 156.067 459.502 156.375 459.393 156.752L456.929 165.249C456.711 166.002 456.644 166.531 456.728 166.837C456.813 167.143 457.059 167.341 457.465 167.433L457.302 167.998C456.961 167.902 456.438 167.765 455.731 167.586C455.051 167.395 454.344 167.216 453.612 167.051C452.758 166.859 451.889 166.682 451.005 166.52C450.125 166.341 449.459 166.21 449.007 166.127L449.171 165.563C449.801 165.705 450.277 165.669 450.599 165.455C450.941 165.246 451.221 164.764 451.44 164.011L453.912 155.487C454.146 154.68 454.195 154.061 454.061 153.63C453.931 153.18 453.541 152.882 452.89 152.736L453.054 152.171C453.689 152.371 454.311 152.54 454.921 152.678C455.938 152.907 456.891 153.093 457.781 153.237C458.696 153.367 459.548 153.454 460.337 153.498L459.775 155.434C460.451 154.822 461.219 154.451 462.08 154.321C462.946 154.172 463.887 154.213 464.904 154.442ZM474.083 156.512C475.018 156.723 475.719 156.995 476.185 157.329C476.677 157.65 477.021 157.995 477.217 158.364C477.428 158.756 477.527 159.236 477.514 159.806C477.5 160.376 477.361 161.118 477.096 162.033L474.982 169.32C474.764 170.073 474.738 170.611 474.904 170.935C475.09 171.264 475.498 171.499 476.128 171.641L475.965 172.206C475.563 172.096 474.948 171.939 474.12 171.733C473.317 171.514 472.519 171.315 471.727 171.136C470.934 170.957 470.156 170.801 469.393 170.667C468.636 170.515 468.061 170.405 467.67 170.336L467.834 169.771C468.24 169.863 468.564 169.792 468.805 169.56C469.045 169.328 469.275 168.835 469.493 168.082L472.027 159.343C472.137 158.966 472.177 158.641 472.148 158.367C472.119 158.093 472.011 157.868 471.824 157.693C471.657 157.521 471.39 157.394 471.024 157.312C470.659 157.229 470.274 157.248 469.871 157.367C469.489 157.491 469.139 157.689 468.822 157.961C468.53 158.22 468.309 158.533 468.16 158.9L468.258 157.777C469.082 156.95 469.979 156.474 470.946 156.349C471.94 156.21 472.985 156.264 474.083 156.512Z" fill="white"/>
<path d="M480.168 173.636C479.222 173.388 478.502 173.026 478.006 172.548C477.51 172.071 477.208 171.538 477.1 170.95C477.012 170.367 477.063 169.792 477.255 169.224C477.506 168.479 477.9 167.926 478.438 167.565C478.981 167.186 479.602 166.934 480.302 166.808C481.027 166.67 481.764 166.593 482.514 166.577C483.263 166.562 483.97 166.544 484.633 166.525C485.322 166.493 485.9 166.403 486.366 166.255C486.838 166.089 487.142 165.802 487.28 165.394L488.078 163.026C488.174 162.742 488.218 162.416 488.211 162.047C488.224 161.684 488.121 161.339 487.903 161.011C487.685 160.684 487.274 160.441 486.671 160.283C486.349 160.199 486.022 160.161 485.691 160.171C485.385 160.168 485.098 160.209 484.829 160.293C485.455 160.708 485.858 161.17 486.036 161.68C486.22 162.173 486.229 162.667 486.061 163.164C485.822 163.873 485.352 164.358 484.652 164.618C483.951 164.879 483.218 164.909 482.454 164.709C481.649 164.498 481.101 164.113 480.807 163.553C480.514 162.994 480.478 162.386 480.7 161.73C480.885 161.18 481.191 160.758 481.618 160.465C482.072 160.159 482.664 159.928 483.395 159.772C484.1 159.629 484.896 159.606 485.783 159.703C486.676 159.782 487.585 159.943 488.51 160.186C489.495 160.444 490.381 160.773 491.166 161.171C491.957 161.552 492.561 162.097 492.98 162.805C493.271 163.306 493.378 163.865 493.301 164.482C493.225 165.099 493.031 165.868 492.72 166.791L490.317 173.921C490.167 174.365 490.096 174.674 490.103 174.849C490.129 175.03 490.233 175.144 490.414 175.192C490.575 175.234 490.741 175.229 490.912 175.177C491.102 175.131 491.283 175.082 491.454 175.03L491.603 175.561C491.047 175.782 490.41 175.886 489.693 175.871C488.995 175.862 488.284 175.763 487.56 175.573C486.695 175.346 486.051 175.081 485.628 174.777C485.231 174.461 484.983 174.126 484.884 173.771C484.81 173.405 484.823 173.041 484.923 172.681C484.303 173.156 483.605 173.504 482.83 173.726C482.081 173.935 481.194 173.905 480.168 173.636ZM483.752 172.259C483.973 172.317 484.173 172.34 484.352 172.329C484.557 172.305 484.78 172.229 485.02 172.099L486.912 166.485C486.694 166.679 486.425 166.859 486.106 167.026C485.813 167.181 485.507 167.342 485.188 167.51C484.869 167.677 484.554 167.865 484.243 168.073C483.952 168.286 483.676 168.552 483.416 168.87C483.182 169.175 482.987 169.558 482.831 170.02C482.604 170.694 482.584 171.209 482.77 171.567C482.982 171.912 483.309 172.143 483.752 172.259Z" fill="white"/>
<path d="M502.689 164.091C503.567 164.343 504.302 164.652 504.896 165.017C505.516 165.37 505.949 165.66 506.197 165.887C506.758 166.457 507.272 166.352 507.737 165.571L508.336 165.743C508.107 166.241 507.846 166.857 507.553 167.591C507.267 168.306 506.903 169.262 506.461 170.459L505.862 170.287C506.023 169.613 506.081 168.919 506.035 168.205C506.01 167.497 505.816 166.858 505.453 166.287C505.11 165.721 504.53 165.321 503.712 165.086C503.213 164.942 502.745 164.954 502.309 165.121C501.872 165.287 501.569 165.599 501.4 166.056C501.205 166.584 501.209 167.111 501.412 167.636C501.622 168.144 501.935 168.672 502.35 169.219C502.772 169.749 503.185 170.306 503.587 170.888C504.043 171.506 504.433 172.095 504.756 172.654C505.079 173.214 505.285 173.789 505.376 174.38C505.493 174.959 505.425 175.591 505.172 176.277C504.879 177.069 504.34 177.692 503.554 178.148C502.788 178.609 501.881 178.883 500.833 178.971C499.811 179.048 498.742 178.925 497.625 178.604C496.926 178.404 496.344 178.159 495.877 177.869C495.404 177.597 495.04 177.327 494.786 177.059C494.519 176.827 494.278 176.641 494.065 176.502C493.878 176.351 493.675 176.244 493.455 176.181C493.256 176.123 493.05 176.171 492.839 176.325C492.634 176.461 492.447 176.64 492.276 176.864L491.677 176.692C491.925 176.14 492.209 175.462 492.528 174.659C492.847 173.855 493.253 172.785 493.747 171.448L494.346 171.62C494.121 172.587 494.045 173.479 494.118 174.298C494.21 175.123 494.448 175.824 494.831 176.401C495.24 176.966 495.803 177.351 496.522 177.558C496.841 177.65 497.15 177.68 497.448 177.649C497.747 177.618 498.015 177.52 498.252 177.354C498.49 177.189 498.67 176.939 498.794 176.605C499.08 175.831 499.051 175.102 498.707 174.42C498.384 173.743 497.94 172.973 497.376 172.111C496.959 171.446 496.566 170.808 496.196 170.195C495.853 169.571 495.612 168.938 495.475 168.295C495.344 167.635 495.405 166.961 495.658 166.275C495.951 165.483 496.46 164.881 497.187 164.467C497.934 164.058 498.791 163.828 499.76 163.775C500.735 163.705 501.711 163.81 502.689 164.091Z" fill="white"/>
<path d="M516.604 160.938C517.417 161.187 518.024 161.706 518.424 162.495C518.844 163.289 518.854 164.194 518.454 165.207C518.137 166.011 517.665 166.817 517.036 167.623C516.427 168.436 515.744 169.294 514.988 170.198C514.239 171.085 513.495 172.043 512.757 173.07C512.025 174.08 511.379 175.185 510.818 176.384L510.282 176.22C510.685 174.972 510.955 173.752 511.092 172.56C511.235 171.35 511.325 170.193 511.361 169.087C511.403 167.964 511.462 166.914 511.535 165.938C511.629 164.967 511.834 164.08 512.151 163.276C512.551 162.262 513.165 161.549 513.994 161.137C514.822 160.725 515.693 160.659 516.604 160.938ZM510.157 177.298C511.089 177.584 511.737 177.998 512.101 178.54C512.471 179.065 512.509 179.704 512.212 180.455C511.916 181.207 511.435 181.696 510.768 181.922C510.108 182.132 509.312 182.093 508.38 181.808C507.429 181.516 506.768 181.108 506.397 180.583C506.053 180.047 506.029 179.403 506.325 178.651C506.621 177.9 507.09 177.416 507.73 177.201C508.397 176.974 509.206 177.007 510.157 177.298Z" fill="white"/>
</svg>
